<?xml version="1.0" encoding="UTF-8" standalone="yes"?>
<!DOCTYPE svg PUBLIC "-//W3C//DTD SVG 1.1//EN" "http://www.w3.org/Graphics/SVG/1.1/DTD/svg11.dtd">

<svg width="750" height="750" viewBox="0 0 750 750" xmlns="http://www.w3.org/2000/svg" xmlns:xlink="http://www.w3.org/1999/xlink" version="1.1" baseProfile="full">
    <g transform="scale(1.000000,-1.000000) translate(0,-750)">
        <path d="M 295.155345 610.529302 C 305.592737 610.529302 315.322690 610.672504 325.001536 610.163091 C 326.855455 610.065516 328.640782 609.528244 330.494700 609.430669 C 355.188510 608.130995 383.398261 602.147711 406.922905 594.306156 C 411.734765 592.702210 416.466378 590.856451 421.278401 589.252444 C 424.811140 588.074864 428.095533 586.101160 431.605531 584.931160 C 435.763856 583.545052 440.237312 581.550934 444.093315 579.474619 C 449.202261 576.723653 454.475320 574.278695 459.584056 571.527837 C 464.442401 568.911805 468.971408 565.684347 473.829670 563.068362 C 480.314183 559.576699 495.101046 548.627483 501.039116 543.769053 C 503.449339 541.797062 505.696881 539.625245 508.107005 537.653325 C 515.915591 531.264483 526.875804 521.020648 533.192454 513.300298 C 534.280209 511.970819 535.766808 510.967667 536.854563 509.638189 C 553.128139 489.748263 566.084391 473.036980 578.419505 450.128911 C 581.350601 444.685448 583.801452 438.982918 586.732475 433.539560 C 592.004942 423.747865 605.070690 386.263731 606.983958 375.421880 C 607.847373 370.529198 609.086937 365.702264 609.950258 360.810055 C 610.700637 356.557966 610.995384 352.202182 611.744700 347.956060 C 613.997062 335.192677 614.177072 322.248808 614.857493 309.320806 C 614.986877 306.862520 615.354220 304.476386 615.223704 301.996587 C 615.075696 299.184441 614.639290 296.385882 614.491282 293.573736 C 614.356735 291.017340 614.625829 288.439701 614.491282 285.883306 C 614.406117 284.265159 613.844026 282.740711 613.758860 281.122564 C 613.226864 271.014632 611.634135 260.903743 609.877033 250.946774 C 609.379830 248.129346 608.506528 245.377902 608.009366 242.560534 C 606.202612 232.322379 603.154650 222.063840 599.879457 212.238295 C 586.236945 171.310725 570.692634 143.403057 543.446360 110.102056 C 537.490602 102.822795 528.489199 92.371214 521.290599 86.481450 C 519.429328 84.958593 518.024916 82.877355 516.163645 81.354497 C 510.667612 76.857743 505.399985 72.081780 499.903871 67.584975 C 485.689821 55.955282 469.777287 45.672600 453.614799 36.969750 C 448.570194 34.253396 443.278631 31.995664 438.233940 29.279320 C 436.196270 28.182086 433.851734 27.623895 431.825249 26.532738 C 419.879025 20.100129 386.765460 9.964261 373.158274 7.562993 C 357.935481 4.876618 342.670860 2.334832 327.198802 1.520513 C 324.885873 1.398780 322.553723 1.642246 320.240794 1.520513 C 313.220723 1.151035 306.045706 0.783505 299.000560 1.154302 C 295.178887 1.355443 290.906829 2.062144 287.281810 2.252935 C 285.699279 2.336226 284.103598 2.169644 282.521067 2.252935 C 279.186860 2.428419 275.689364 2.919984 272.413654 3.498061 C 268.915181 4.115428 261.711330 4.632732 257.142654 5.438952 C 241.806815 8.145294 226.318887 11.270198 211.512758 16.205563 C 206.597824 17.843886 201.742320 19.657700 196.827708 21.295904 C 190.444353 23.423688 183.844429 26.314995 177.931233 29.499037 C 176.695942 30.164180 175.282319 30.446471 174.049383 31.110375 C 168.700492 33.990531 163.174673 36.543421 157.826243 39.423345 C 151.424395 42.870494 145.587263 47.365728 139.186097 50.812496 C 132.669238 54.321588 119.407796 65.030537 113.331614 70.001958 C 69.585920 105.793890 35.219221 153.386990 17.274484 207.221179 C 10.078520 228.809092 3.376396 257.051501 2.186595 279.657720 C 2.089020 281.511639 1.551747 283.296965 1.454173 285.150884 C 1.107838 291.731250 1.087962 298.326860 1.087962 304.926275 C 1.087962 308.692597 0.890048 312.518444 1.087962 316.278814 C 1.248421 319.327542 1.293644 322.384041 1.454173 325.434087 C 1.533028 326.932337 2.107739 328.330369 2.186595 329.828618 C 3.311720 351.206008 7.611561 375.913088 14.418038 396.332516 C 15.631725 399.973579 16.858770 403.654713 18.080147 407.318844 C 18.850002 409.628411 20.020244 411.820778 20.790111 414.130381 C 22.956298 420.628940 25.569528 427.191706 28.810134 433.209962 C 29.562069 434.606424 29.851030 436.241699 30.604566 437.641127 C 32.585320 441.319667 41.275488 458.702866 43.202220 461.481450 L 44.300852 461.481450 C 45.092762 464.116966 46.378510 465.636764 47.962962 467.707036 L 48.329173 469.538091 C 50.042653 470.973196 53.094607 475.773062 54.554759 477.594732 L 54.920970 479.425786 L 70.301829 499.567388 C 71.812793 500.771045 72.982066 502.091719 73.963938 503.961919 L 82.753001 513.117193 C 86.540710 516.889202 94.553617 526.604696 98.500071 528.864263 C 99.133029 529.875864 99.458808 530.468377 100.697337 531.061529 C 103.061604 533.588026 113.351499 542.595325 115.711985 543.878911 C 118.658403 546.914790 137.798440 560.405998 138.050852 561.090825 C 141.482350 562.172183 150.874729 568.883347 154.493733 570.832039 C 158.148275 572.799872 161.785919 574.758603 165.443426 576.728037 C 166.268678 577.172396 167.328144 577.235817 168.153396 577.680176 C 169.824342 578.579924 171.462576 579.490220 173.133856 580.390146 C 176.277510 582.082876 185.615948 586.015682 189.064032 587.165043 C 191.346200 587.925765 193.459317 589.264904 195.729075 590.021489 C 201.275508 591.870301 206.760054 593.967037 212.281814 595.807623 C 236.034554 603.725204 269.360838 610.163091 295.155345 610.529302 Z M 294.056712 592.584966 C 291.916496 592.218755 290.703588 591.916992 289.479075 591.852544 C 287.653079 591.756439 285.811908 591.948649 283.985911 591.852544 C 281.898452 591.742678 279.847784 591.229989 277.760325 591.120122 C 257.399630 590.048507 232.627236 583.375564 213.233953 576.911142 C 197.743652 571.747702 182.455391 565.352336 168.080149 557.611822 C 162.977117 554.864035 158.168299 551.570419 153.065501 548.822759 C 145.076300 544.520882 130.879306 533.367061 123.585520 527.399419 C 121.046274 525.321854 118.800375 522.885046 116.261302 520.807622 C 104.411039 511.111953 93.063674 498.436412 83.412176 486.640146 C 54.724398 451.577296 32.624733 407.828981 24.708567 362.970708 C 22.416158 349.980386 20.468761 339.909506 19.764720 326.532720 C 19.667145 324.678801 19.129872 322.893474 19.032298 321.039556 C 18.770540 316.066163 19.032298 311.006173 19.032298 306.024907 C 19.032298 300.314676 18.732234 294.514200 19.032298 288.812993 C 20.145071 267.670303 25.789538 239.683851 32.508856 219.525902 C 39.248929 199.305678 45.750025 184.315033 55.836497 165.583013 C 58.069339 161.436306 60.891604 157.607484 63.124092 153.461440 C 65.402679 149.229775 68.280597 144.880393 71.327215 141.156761 C 75.133395 136.504751 78.361118 131.379744 82.167061 126.728041 C 94.551172 111.591899 108.071101 98.442645 123.182697 86.078627 C 125.898315 83.856742 128.460043 81.400714 131.825267 79.157232 L 147.938548 93.805669 C 160.248972 102.672277 173.960045 108.741709 187.599188 113.288073 C 189.270986 113.845356 190.847707 114.785968 192.506423 115.338890 C 199.034478 117.514892 205.572877 120.064711 211.622639 123.322262 C 213.005607 124.066951 214.548093 124.474969 215.943923 125.226585 C 219.316871 127.042773 234.044164 135.397076 236.561595 137.750982 C 236.128199 138.350686 220.905772 146.674016 219.386293 147.492184 C 210.573563 152.237513 191.324092 168.566165 184.925852 176.386236 C 182.785044 179.002780 180.584690 181.570031 178.443914 184.186546 C 176.676257 186.347004 175.267824 188.800845 173.500067 190.961449 C 172.100956 192.671460 170.382293 194.683026 169.544993 197.443364 C 167.217157 201.000404 164.901588 204.052670 163.136302 207.331060 C 161.420099 210.518294 159.835406 213.775190 158.119207 216.962425 C 155.736780 221.386924 153.915969 226.569208 152.333079 231.317876 C 148.897868 241.623510 146.760288 249.347223 144.862367 260.102047 C 144.334569 263.092961 143.703799 266.001734 143.544017 269.037603 C 143.446442 270.891521 142.909169 272.676848 142.811595 274.530767 C 142.600912 278.533742 142.811595 282.606417 142.811595 286.615728 C 142.811595 290.382050 142.613680 294.207897 142.811595 297.968267 C 142.890450 299.466517 143.465161 300.864548 143.544017 302.362798 C 144.156635 314.002545 146.584584 325.913210 150.282307 337.006344 C 154.964774 351.053781 157.118108 356.816385 164.198322 369.965328 C 165.487106 372.358809 166.416981 375.038276 168.812571 377.252935 C 169.647480 381.896176 175.038157 384.334502 175.038157 388.422368 C 175.038157 388.765059 169.262160 409.678408 168.592854 413.471205 C 164.804438 434.938834 166.156390 460.873747 173.060609 481.586440 C 174.343378 485.434710 175.457118 489.437604 177.381916 493.012214 C 178.436482 494.970709 178.962257 497.202728 180.018617 499.164554 C 181.710683 502.306947 188.946512 516.896265 191.151438 518.976568 C 192.047074 519.669207 192.368224 520.033909 192.616282 521.173833 C 194.605493 524.053622 196.982759 526.408913 198.841868 528.681157 C 207.938506 539.799270 214.650940 544.778583 225.502020 553.656748 C 228.025774 555.721629 232.673768 557.780529 235.096751 560.358404 C 238.146675 562.279636 241.291595 563.229283 243.849201 564.606453 C 254.837343 570.523147 267.362577 574.184410 279.701239 576.361826 C 280.827421 576.560559 281.977531 576.418850 283.106996 576.618167 C 285.901559 577.111326 288.835003 577.786984 291.676341 577.936529 C 294.963135 578.109518 298.277242 577.763539 301.564036 577.936529 C 308.031323 578.276912 314.491279 578.277683 320.973216 577.936529 C 322.380169 577.862478 323.720160 577.468552 325.111417 577.313965 C 339.208770 575.747595 357.251441 571.670204 369.825764 564.899417 C 372.609078 563.400707 375.428631 561.966996 378.212003 560.468262 C 380.154153 559.422484 381.873106 557.961663 383.815004 556.916023 C 387.074580 555.160869 390.510071 552.703338 393.373100 550.360849 C 395.384514 548.715158 397.331079 546.989346 399.342356 545.343755 C 403.692895 541.784223 408.377996 537.840234 411.976634 533.441900 C 419.978362 523.662009 427.274028 513.559937 433.290092 502.387217 C 437.631256 494.325084 440.443743 485.540572 443.324281 476.898922 C 449.041085 459.748545 449.705844 433.397983 446.583567 415.705083 C 445.906150 411.866387 445.291706 407.654696 444.056703 403.949721 C 443.253547 401.540218 439.018738 389.515559 439.332573 387.946299 C 439.863038 385.294057 444.032606 380.944117 445.448322 378.314955 C 447.570375 374.373975 449.954514 370.574079 452.076731 366.632818 C 459.115552 353.560722 467.008333 333.900292 469.581632 319.318360 C 472.070849 305.212701 473.892732 291.146603 473.133860 276.728032 C 473.048695 275.109886 472.486604 273.585437 472.401438 271.967290 C 471.961150 263.601810 470.257516 255.334960 468.226625 247.211440 C 461.293610 219.479337 449.334037 197.956742 431.385813 176.020025 C 429.237649 173.394490 426.462083 171.096294 424.061595 168.695806 C 415.490711 160.124923 404.734493 151.387237 394.032298 145.624517 C 391.548546 144.287112 388.935543 143.189981 386.451749 141.852526 C 384.592080 140.851193 382.785282 139.516864 380.116282 138.849614 C 381.893541 137.411668 387.853365 132.443972 390.443413 131.049304 C 397.086286 127.472400 403.611584 123.677077 410.255460 120.099632 C 415.007498 117.540815 436.005022 109.660953 441.822825 107.721685 C 448.708995 105.426295 455.055293 101.385272 461.378498 97.980483 C 467.237160 94.825805 474.108138 88.986176 478.810130 84.284185 C 480.076176 83.018139 483.284588 78.928952 485.108940 79.450218 C 486.387077 79.815377 487.409964 81.199674 488.404839 82.013695 C 493.773658 86.406332 499.076415 90.878120 504.444895 95.270513 C 506.346207 96.826132 514.032761 105.046061 515.467836 106.220229 C 517.866005 108.182351 520.952025 111.336192 522.938548 113.764165 C 524.633900 115.836263 529.958398 122.561563 531.727610 124.567388 C 532.859645 125.732825 544.565795 141.304889 544.911204 142.145513 C 545.806840 142.838152 546.127989 143.202854 546.376048 144.342779 C 547.848661 146.189372 549.333763 147.441094 550.038157 149.835943 C 551.050869 150.762734 551.514244 151.679847 552.601634 152.399419 C 553.065344 154.815470 558.577682 162.948479 559.779359 165.180190 C 563.763925 172.580073 572.027283 188.081151 574.501066 195.502429 C 576.439600 201.318104 579.145027 206.870907 581.092863 212.714343 C 588.973741 236.357049 594.865501 260.893860 596.180735 285.883306 C 596.284463 287.854123 596.809430 289.771864 596.913157 291.742681 C 597.260612 298.344318 597.260612 311.874442 596.913157 318.476079 C 596.809430 320.446896 596.284463 322.364638 596.180735 324.335454 C 596.091037 326.039718 596.270433 327.758144 596.180735 329.462407 C 596.095570 331.080554 595.533479 332.605003 595.448313 334.223150 C 594.075127 360.313686 582.119695 403.967928 569.667054 427.094234 C 568.622321 429.034479 568.038538 431.269597 566.993741 433.209962 C 564.684323 437.498852 562.418562 441.811326 560.108958 446.100591 C 559.146203 447.888565 557.812257 449.476522 556.849672 451.264156 C 554.277843 456.040434 551.212137 461.775916 547.767667 465.985840 C 544.451135 470.039362 541.892256 474.713105 538.575737 478.766611 C 533.960291 484.407729 529.384895 490.081260 524.769602 495.722173 C 523.681847 497.051652 522.195248 498.054804 521.107493 499.384282 C 511.406603 511.240926 499.265256 521.316816 487.489311 530.951670 C 477.620250 539.026366 463.857184 548.268388 452.626048 554.315923 C 447.131669 557.274435 441.531616 560.036317 436.036674 562.995127 C 431.939777 565.201154 422.506449 569.165360 418.055726 570.648933 C 411.571478 572.810350 404.092758 575.889194 397.071866 578.229493 C 374.162292 585.866016 348.328841 590.586243 324.269114 591.852544 C 322.770865 591.931399 321.372833 592.506111 319.874583 592.584966 C 311.565286 593.022297 303.111616 592.584966 294.056712 592.584966 Z M 300.648509 561.457036 C 288.040879 561.090825 276.990005 558.612372 265.968328 554.938486 C 230.251109 543.032740 201.296251 513.265986 189.430243 477.667978 C 184.716546 463.526871 182.306700 448.440167 183.094798 433.466314 C 183.198525 431.495497 183.723492 429.577755 183.827220 427.606939 C 183.907841 426.075125 183.741495 424.552671 184.010325 423.029302 C 184.585942 419.767474 187.709328 402.330276 189.759841 402.558102 C 190.340919 402.622675 193.552145 406.041175 194.447337 407.282232 L 213.856517 422.663091 C 220.234568 427.080419 226.787389 430.118845 232.936097 433.429702 C 258.190197 447.028049 290.217694 451.998188 318.775950 450.495122 C 320.394097 450.409957 321.918545 449.847866 323.536692 449.762700 C 336.561315 449.077194 349.551357 446.120442 361.915616 441.999024 C 374.149960 437.920908 396.709499 427.014512 406.593351 418.927735 C 411.229454 415.134550 415.946606 411.441521 420.582591 407.648443 C 422.045017 406.451912 423.148485 404.816653 424.610911 403.620122 C 424.895711 403.387104 425.393942 403.099607 425.746156 403.363770 C 427.241644 404.485384 429.802094 416.925450 429.920970 419.184087 C 430.088203 422.361528 431.217755 425.512464 431.385813 428.705572 C 432.015232 440.664533 431.375942 450.001745 429.298429 461.774415 C 427.179846 473.779624 422.601051 485.512597 416.847257 496.198243 C 415.625888 498.466471 414.076741 500.558721 412.855549 502.826663 C 411.437424 505.460308 409.783627 508.330900 407.875089 510.663575 C 405.566805 513.484793 403.298506 516.338539 400.990306 519.159673 C 399.486591 520.997546 397.543694 522.606285 395.863352 524.286626 C 383.666335 536.483644 368.652712 547.883207 352.101145 553.400396 C 347.084301 555.072677 342.078609 557.344802 336.830167 558.270997 C 321.126879 561.042167 317.609313 561.457036 300.648509 561.457036 Z M 298.451243 433.283208 C 283.846140 432.916997 269.788819 429.585473 256.336985 424.860357 C 257.751358 420.408898 258.829167 416.614768 260.035707 412.995113 C 264.462707 399.714148 273.655256 387.835971 284.352122 379.083989 C 286.427661 377.385821 295.523078 369.928716 298.451243 369.928716 C 298.451243 373.179580 298.817454 375.471761 298.817454 377.802251 C 298.817454 388.736737 298.242864 399.844031 298.817454 410.761236 C 298.915029 412.615154 299.452301 414.400481 299.549876 416.254400 C 299.786935 420.758524 299.312817 425.300080 299.549876 429.804204 C 299.596791 430.695590 299.918627 431.459139 300.282298 432.916997 L 299.916087 433.283208 L 298.451243 433.283208 Z M 316.761790 433.283208 C 316.123674 425.647845 316.046937 418.850281 316.395579 412.226079 C 316.919094 402.279293 316.395579 392.159314 316.395579 382.196782 C 316.395579 376.132821 316.761790 370.123717 316.761790 363.336919 C 319.143585 364.902933 324.223710 367.427966 326.429768 369.232906 C 340.542493 380.779697 346.336436 391.745917 352.027921 408.820322 C 352.796005 411.124623 357.126745 423.524977 356.349183 425.080074 C 355.697651 426.383167 348.801234 427.928377 347.157298 428.339361 C 339.066785 430.361989 325.611391 433.283208 316.761790 433.283208 Z M 238.758860 417.169927 C 234.993538 414.655615 231.744246 412.815340 228.541566 411.090834 C 221.997159 407.566909 211.178330 398.216210 205.250560 393.366216 C 203.237781 391.719397 196.744069 386.143428 196.205145 383.808120 C 195.470240 380.623504 208.030095 365.148042 210.560618 362.055181 C 211.539598 360.858650 212.877537 359.955813 213.856517 358.759282 C 226.054773 343.850302 253.787508 326.947733 270.948811 317.707045 C 275.086365 315.479118 278.859747 312.574025 282.997137 310.346192 C 286.063593 308.695030 292.431266 302.903931 295.887767 301.813482 C 295.887767 308.560859 295.581314 314.484534 295.887767 320.307134 C 295.946749 321.427800 296.561206 322.482367 296.620188 323.603032 C 296.843640 327.848612 296.620188 332.168116 296.620188 336.420415 C 296.620188 339.539257 298.511890 345.672323 296.986399 348.505376 C 296.551319 349.313383 286.211220 355.039818 284.608474 355.902842 C 278.747530 359.058728 273.694689 363.933412 268.605052 368.097661 C 259.478915 375.564501 247.277640 394.872864 243.556215 406.037106 C 242.480613 409.263946 241.739681 413.039340 240.223704 416.803716 L 239.857493 417.169927 L 238.758860 417.169927 Z M 376.087962 416.803716 C 375.619601 412.563444 373.888131 408.995728 372.865288 405.927247 C 366.514921 386.876097 355.854070 370.036312 340.235902 357.257827 C 335.650874 353.506424 330.331021 349.924340 325.111417 347.113779 C 323.641565 346.322325 319.403834 344.675282 318.666069 343.305176 C 317.415969 340.983533 318.592845 333.853395 318.592845 330.927251 C 318.592845 320.227593 318.959056 309.566040 318.959056 298.151372 C 323.334106 303.618562 326.819999 308.737584 331.776438 313.532232 C 333.365677 314.326851 339.642260 320.250885 341.188042 321.515626 C 345.947940 325.410077 361.043459 334.883672 362.904368 336.969732 C 366.303983 339.153232 369.570107 340.409358 372.169523 342.536142 C 375.003913 344.855199 378.197352 346.735591 381.031810 349.054693 C 383.727981 351.260651 386.685160 353.147491 389.381437 355.353525 C 395.225968 360.135425 400.741941 365.102715 406.117259 370.478032 C 408.259298 372.620072 417.801506 382.480673 417.982502 384.833506 C 418.113353 386.534675 410.442286 393.173394 408.863841 394.464849 C 398.928607 402.593677 392.455101 408.173747 380.848704 414.423345 C 379.497920 415.150690 378.186868 416.206937 376.087962 416.803716 Z M 429.188548 370.294927 C 427.518960 368.068810 425.983586 366.804997 424.794017 365.351079 C 413.180253 351.156479 397.897122 340.880928 384.254484 329.718760 C 377.432815 324.137405 369.616081 319.772701 362.794487 314.191407 C 358.969560 311.061911 355.193346 307.872405 351.368724 304.743169 C 341.943205 297.031381 332.726971 286.938853 329.689054 274.787097 C 329.323341 273.324335 328.846751 271.833922 328.846751 269.586919 C 331.302485 270.929120 332.982492 272.747929 334.706126 274.713872 C 336.932951 275.827285 340.148957 278.057282 341.664134 279.840825 C 343.142627 280.583484 344.094917 280.823352 344.960032 282.038091 C 346.584132 282.945694 348.066835 283.443369 349.061577 283.979027 C 352.487449 285.823700 355.852232 287.663676 359.278871 289.508803 C 362.393749 291.186031 365.999831 291.944625 369.093342 293.610348 C 373.265641 295.856984 378.986463 297.811387 383.522062 299.323229 C 386.102250 300.183316 388.684048 301.483046 391.065998 302.765621 C 394.073260 304.384930 397.563284 305.165541 400.587483 306.793941 C 409.886470 311.801102 419.683837 316.625457 427.943422 323.383315 C 430.600513 325.557282 444.590353 335.520699 445.008842 338.031752 C 445.341264 340.026168 437.834469 355.624586 436.402885 358.283213 C 435.200845 360.515601 431.581028 368.384612 429.920970 370.294927 L 429.188548 370.294927 Z M 183.461009 366.999029 C 176.914332 358.270126 172.659506 347.741494 169.508381 338.288082 C 168.909650 336.491925 165.956070 329.901972 166.688552 328.437021 C 168.031735 325.750642 185.882336 315.003192 189.430243 313.092774 C 192.573412 311.400305 196.002758 310.201646 199.134832 308.515137 C 210.383652 302.458087 234.576563 296.115296 247.584535 291.779293 C 251.342226 290.526741 254.923426 288.747071 258.680744 287.494643 C 264.216479 285.649386 270.584565 281.394750 275.782777 278.595699 C 279.756001 276.456285 282.966847 273.073912 287.098704 270.319341 C 282.516463 282.690471 277.919892 287.766911 268.495193 295.478015 C 267.072677 296.641905 265.340112 297.426913 263.917556 298.590808 C 260.900395 301.059408 257.278497 303.517864 253.846755 305.365732 C 249.349849 307.787136 245.416369 311.257328 240.919514 313.678725 C 237.250224 315.654483 231.618445 319.391036 228.395095 322.028330 C 225.564621 324.344164 222.473145 326.340883 219.642645 328.656739 C 211.138773 335.614461 201.524913 344.493677 194.557196 353.009766 C 191.126538 357.202802 187.294817 363.140692 183.461009 366.999029 Z M 450.794993 317.560552 C 449.181216 315.408849 447.571699 314.274120 446.217356 313.166021 C 445.419669 312.513368 444.817778 311.621408 444.020091 310.968755 C 436.888078 305.133472 429.271275 299.111445 421.095295 294.708981 C 416.039235 291.986500 411.100706 289.045592 406.044034 286.322741 C 403.815407 285.122739 400.837604 284.284848 398.793040 282.038091 C 401.098650 281.523582 402.471394 280.873008 403.919993 280.390142 C 417.290305 275.933371 431.878638 273.984424 445.851145 273.249029 C 448.621694 273.103210 451.303179 272.516607 454.823313 272.516607 L 455.189524 272.882818 C 455.189524 274.753971 455.504736 275.759048 455.555735 276.728032 C 455.826745 281.877210 455.826745 287.325925 455.555735 292.475103 C 455.387940 295.663205 454.496229 303.850064 453.944398 306.977047 C 453.488832 309.558647 451.893626 314.528204 451.893626 317.560552 L 450.794993 317.560552 Z M 161.854563 306.574224 C 160.580490 295.752264 159.869343 285.882776 160.389720 275.995611 C 160.497314 273.951313 161.122142 272.013818 161.122142 269.220708 L 161.488352 268.854497 C 173.209038 268.854497 192.568986 271.512072 202.833576 274.933590 C 204.268386 275.411872 213.955117 278.843627 214.186115 279.767601 C 214.397443 280.612929 212.268904 281.065830 211.769110 281.232445 C 207.588230 282.626055 198.281664 286.184954 194.557196 288.190453 C 192.047378 289.541878 189.266883 290.391156 186.756907 291.742681 C 182.330915 294.125907 177.998932 296.683875 173.573313 299.066900 C 170.900613 300.506046 164.633817 305.879410 161.854563 306.574224 Z M 237.294017 267.389654 C 234.896053 266.480073 233.238797 266.367504 231.690994 265.851585 C 226.078594 263.980769 220.767486 261.209423 215.138255 259.333013 C 199.308497 254.056427 182.641954 250.543950 165.150462 250.543950 L 164.784251 250.177739 C 164.784251 245.325095 172.837095 226.459553 175.111404 222.235827 C 177.120946 218.503830 179.108140 214.761010 181.117250 211.029781 C 182.103244 209.198675 183.478533 207.487879 184.632888 205.756335 C 195.008020 190.193649 209.818941 174.866527 225.392161 164.484380 C 233.183741 159.289994 243.907413 152.622210 253.590403 153.131841 C 259.054277 153.419413 267.525024 160.967081 270.912176 165.106921 C 272.029923 166.473068 275.078422 171.973789 276.112376 173.273443 C 281.518929 182.987916 284.622241 191.771892 286.476141 202.277331 C 286.881215 204.572745 287.709020 207.025214 287.831126 209.345220 C 288.015634 212.850874 287.280781 216.139660 287.098704 219.599126 C 285.880218 242.750357 269.674713 263.151028 246.485902 267.243160 C 243.768550 267.722703 240.780582 267.389654 237.294017 267.389654 Z M 369.496165 267.389654 C 365.658963 265.854773 360.555775 265.801071 355.616762 263.141616 C 348.921392 259.536403 343.266952 255.086772 338.441460 249.188988 C 337.440314 247.965326 336.692553 246.464126 335.951252 245.087399 C 329.730447 233.534500 326.313318 221.957981 327.015696 208.612798 C 327.880041 192.190253 333.871215 176.959091 344.227610 164.301275 C 345.305056 162.984396 346.369871 161.549759 347.706614 160.456060 C 348.985581 159.409633 350.346017 158.463008 351.625053 157.416491 C 354.114774 155.379480 357.743124 153.040954 360.963432 152.472643 C 368.007690 151.229560 378.829730 157.382930 384.877024 160.639165 C 387.770776 162.197339 391.023979 163.545826 393.666087 166.315435 C 396.978432 168.727403 400.333542 170.168643 403.187571 172.907232 C 403.717410 174.042878 411.796277 180.682401 413.075267 182.245611 C 414.766850 184.313101 416.877038 186.037728 418.568431 188.104986 C 422.108442 192.431666 425.297070 197.128913 429.554759 201.471685 C 429.876550 203.113956 434.138782 210.058783 435.414134 210.993169 C 435.893826 213.505114 439.989300 220.300802 441.090403 222.345708 C 444.019619 227.785680 451.161204 246.963329 451.161204 253.473638 C 438.937288 253.473638 409.251509 258.422540 398.390217 262.042983 C 392.553217 263.988638 385.808653 266.137387 379.750071 267.206548 C 376.683533 267.747702 373.334951 267.389654 369.496165 267.389654 Z M 331.776438 144.708989 C 332.668978 141.195901 332.584798 138.511938 333.351163 136.212914 C 335.761390 128.982161 341.389376 118.816293 347.340403 113.947271 C 367.609949 97.363097 394.762158 95.788634 414.283781 79.816429 C 420.845762 74.447503 427.409316 68.362398 431.495695 60.773460 C 432.677303 58.578994 436.922911 49.593760 436.988859 49.567370 C 437.769574 49.255094 459.048273 60.835639 461.048899 63.043950 L 466.542063 65.973638 C 452.568311 82.003946 439.153387 88.836107 419.850169 95.270513 C 413.924643 97.245688 408.233643 99.923938 402.308656 101.898922 C 393.363571 104.880629 381.296079 112.480978 372.792063 117.060064 C 366.249403 120.583035 348.588886 131.802294 343.019096 136.359362 C 341.608772 137.513297 333.343910 144.317122 331.776438 144.708989 Z M 281.605540 144.342779 C 279.970556 142.162799 262.629671 129.983215 259.889236 128.156273 C 244.196764 117.694610 227.273456 108.177885 209.315492 102.191909 C 203.588845 100.283014 198.123842 97.582440 192.396565 95.673336 C 180.740830 91.788103 169.476524 85.742946 159.950262 77.948718 C 158.748323 76.965327 157.709729 75.782649 156.507893 74.799313 C 153.988190 72.737754 150.506728 70.011366 149.037181 66.339849 C 156.928314 61.652787 170.099876 53.054355 178.334056 50.226568 L 178.700267 50.592779 C 179.845079 52.511252 183.458250 64.369051 194.813548 74.762700 C 198.078937 76.395395 199.980964 79.837784 203.602610 80.988286 C 204.756332 82.114464 207.482370 83.787983 208.363352 85.016607 C 210.532010 85.488319 211.617773 86.670391 212.831130 87.323753 C 215.917633 88.985701 219.255522 90.106944 222.315980 91.754897 C 226.092627 93.788462 230.403502 95.085491 234.474188 96.442370 C 236.147715 97.000229 237.707896 97.935328 239.381423 98.493187 C 251.212736 102.436942 263.538866 108.324927 271.644598 118.231921 C 276.099326 123.676601 279.073276 129.824600 281.275941 136.432631 C 281.572151 137.321224 282.100872 138.177493 282.264715 139.105944 C 282.513058 140.513210 282.043337 142.288685 282.704173 144.342779 L 281.605540 144.342779 Z M 307.240306 131.891607 C 291.418185 110.795445 277.215477 95.550369 282.118244 67.768080 C 284.621002 53.585727 291.675469 40.981050 299.549876 29.169439 C 300.570323 27.638767 306.735134 18.446816 308.009340 18.659203 C 309.729007 18.945795 314.625972 27.434768 316.761790 29.352544 L 317.128001 31.183599 C 319.103666 34.036296 320.979105 36.373805 322.364835 38.947253 C 326.904402 47.377927 330.717248 56.370486 332.398979 65.900414 C 336.140729 87.103545 328.275767 106.120563 315.040616 122.296898 C 312.543747 125.348588 310.417517 128.783666 307.240306 131.891607 Z M 262.928782 88.312505 C 259.799978 87.274730 250.309944 82.873316 246.961994 81.757320 C 232.354489 76.888164 217.791616 71.190475 206.715403 60.114263 C 204.575669 57.974528 194.251220 43.345790 196.717849 41.327624 C 198.084473 40.209492 200.273125 39.751923 201.918049 39.203627 C 206.516881 37.670671 210.978148 35.719715 215.577712 34.186511 C 230.511438 29.208618 245.964324 25.679079 261.463938 22.943853 C 264.148028 22.470190 281.354434 20.783199 282.704173 19.831060 C 282.220616 22.160835 273.198155 35.861319 271.388246 41.291012 C 270.555693 43.788706 269.327757 46.154154 268.495193 48.651843 C 264.857850 59.563877 262.687171 71.453830 263.294993 83.002447 C 263.375879 84.539275 263.661204 86.035691 263.661204 88.312505 L 262.928782 88.312505 Z M 350.453196 87.580083 C 351.593475 82.905800 351.015883 75.016729 350.819407 71.283697 C 350.001262 55.738932 344.368000 41.410492 337.086497 27.887700 C 335.876139 25.639893 333.403471 22.749004 332.508860 19.831060 C 337.401905 19.831060 341.391890 20.461584 345.289631 21.149410 C 348.103498 21.645986 351.021376 21.643901 353.822319 22.138207 C 369.920116 24.978973 385.772965 28.882148 401.246635 34.040062 C 404.234681 35.036053 419.082804 39.985043 421.131907 41.803716 C 419.236400 44.547954 416.520579 54.715249 408.131419 61.579107 C 391.581463 75.119980 370.842537 80.332237 350.453196 87.580083 Z" transform="scale(1.000000,1.000000) translate(65.928640,71.721675)" fill="#8d723c" opacity="0.984314"></path>
        <path d="M 107.030152 137.596680 C 113.655277 137.596680 119.640477 137.906329 125.523805 137.596680 C 129.708849 137.376414 141.909995 135.430515 145.848512 134.117676 C 158.266917 129.978207 163.865086 127.825022 175.438373 121.593257 C 177.651007 120.401834 180.053416 118.749476 181.993513 117.162114 C 182.944709 116.383873 184.148812 115.931368 185.106306 115.147954 C 187.662822 113.056269 190.350114 111.123911 192.906617 109.032227 C 194.875767 107.421104 196.599415 105.339428 198.399781 103.539063 C 214.021899 87.916944 226.746712 67.296103 230.626344 45.311523 C 230.889798 43.818615 231.424878 42.373409 231.688364 40.880380 C 232.988532 33.512702 233.767225 25.520494 233.372926 18.028809 C 233.281531 16.292309 232.731899 14.638355 232.640504 12.901855 C 232.472189 9.703877 232.362937 4.883720 231.175660 1.000000 C 229.120634 1.513756 227.604354 3.572413 226.451530 4.515616 C 222.605593 7.662308 218.286047 10.231017 214.439838 13.377925 C 207.650607 18.932740 187.185567 28.077915 178.551166 30.956050 C 167.810874 34.536146 156.976791 37.262145 145.811900 39.232431 C 138.253259 40.566298 125.648551 40.916992 117.833375 40.916992 C 113.216593 40.916992 108.526846 41.159597 103.917359 40.916992 C 102.063441 40.819418 100.278114 40.282145 98.424195 40.184570 C 65.596508 38.456797 28.203958 23.655786 3.026246 1.366211 L 2.660035 1.732422 C 2.660035 6.052021 1.384945 9.662743 1.195191 13.268066 C 0.280198 30.652944 2.585278 46.076021 8.043340 62.450191 C 8.772393 64.637366 9.471407 67.038014 10.570183 69.078622 C 12.078416 71.879601 13.346537 74.810158 14.854855 77.611333 C 15.736401 79.248478 16.912315 80.774090 18.407106 82.665039 C 19.036427 85.182326 23.076589 90.914264 24.632691 93.285156 C 26.793026 95.230952 28.244949 97.110131 29.759645 98.961426 C 35.104137 105.493584 49.196413 117.258658 56.566290 121.227046 C 58.967076 122.519784 61.472957 123.643744 63.853874 124.925779 C 68.386317 127.366322 73.092618 129.665516 77.989630 131.297847 C 83.900001 133.267977 90.149475 134.973177 96.300176 136.058589 C 98.155863 136.386069 105.251310 136.885143 107.030152 137.596680 Z" transform="scale(1.000000,1.000000) translate(256.617309,488.624023)" fill="#8d723c" opacity="0.984314"></path>
    </g>
</svg>