<svg id="eMjZSXmzPwY1" xmlns="http://www.w3.org/2000/svg" xmlns:xlink="http://www.w3.org/1999/xlink" viewBox="0 0 750 750" shape-rendering="geometricPrecision" text-rendering="geometricPrecision" project-id="3a89d909d81243d4b12b9ba451812b9d" export-id="0f7a1ae86d894d6cb8bd8d4107be220a" cached="false"><defs><filter id="eMjZSXmzPwY2-filter" x="-150%" y="-150%" width="400%" height="400%"><feGaussianBlur id="eMjZSXmzPwY2-filter-blur-0" stdDeviation="1,1" result="result"/><feComponentTransfer id="eMjZSXmzPwY2-filter-brightness-0" result="result"><feFuncR id="eMjZSXmzPwY2-filter-brightness-0-R" type="linear" slope="1"/><feFuncG id="eMjZSXmzPwY2-filter-brightness-0-G" type="linear" slope="1"/><feFuncB id="eMjZSXmzPwY2-filter-brightness-0-B" type="linear" slope="1"/></feComponentTransfer></filter><filter id="eMjZSXmzPwY7-filter" x="-150%" y="-150%" width="400%" height="400%"><feComponentTransfer id="eMjZSXmzPwY7-filter-brightness-0" result="result"><feFuncR id="eMjZSXmzPwY7-filter-brightness-0-R" type="linear" slope="5.09"/><feFuncG id="eMjZSXmzPwY7-filter-brightness-0-G" type="linear" slope="5.09"/><feFuncB id="eMjZSXmzPwY7-filter-brightness-0-B" type="linear" slope="5.09"/></feComponentTransfer><feGaussianBlur id="eMjZSXmzPwY7-filter-blur-0" stdDeviation="5,5" result="result"/></filter></defs><g mask="url(#eMjZSXmzPwY5)"><path d="M107.030152,137.59668c6.625125,0,12.610325.309649,18.493653,0c4.185044-.220266,16.38619-2.166165,20.324707-3.479004c12.418405-4.139469,18.016574-6.292654,29.589861-12.524419c2.212634-1.191423,4.615043-2.843781,6.55514-4.431143.951196-.778241,2.155299-1.230746,3.112793-2.01416c2.556516-2.091685,5.243808-4.024043,7.800311-6.115727c1.96915-1.611123,3.692798-3.692799,5.493164-5.493164c15.622118-15.622119,28.346931-36.24296,32.226563-58.22754.263454-1.492908.798534-2.938114,1.06202-4.431143c1.300168-7.367678,2.078861-15.359886,1.684562-22.851571-.091395-1.7365-.641027-3.390454-.732422-5.126954C232.472189,9.703877,232.362937,4.88372,231.17566,1c-2.055026.513756-3.571306,2.572413-4.72413,3.515616-3.845937,3.146692-8.165483,5.715401-12.011692,8.862309-6.789231,5.554815-27.254271,14.69999-35.888672,17.578125-10.740292,3.580096-21.574375,6.306095-32.739266,8.276381-7.558641,1.333867-20.163349,1.684561-27.978525,1.684561-4.616782,0-9.306529.242605-13.916016,0-1.853918-.097574-3.639245-.634847-5.493164-.732422C65.596508,38.456797,28.203958,23.655786,3.026246,1.366211l-.366211.366211c0,4.319599-1.27509,7.930321-1.464844,11.535644C0.280198,30.652944,2.585278,46.076021,8.04334,62.450191c.729053,2.187175,1.428067,4.587823,2.526843,6.628431c1.508233,2.800979,2.776354,5.731536,4.284672,8.532711.881546,1.637145,2.05746,3.162757,3.552251,5.053706.629321,2.517287,4.669483,8.249225,6.225585,10.620117c2.160335,1.945796,3.612258,3.824975,5.126954,5.67627c5.344492,6.532158,19.436768,18.297232,26.806645,22.26562c2.400786,1.292738,4.906667,2.416698,7.287584,3.698733c4.532443,2.440543,9.238744,4.739737,14.135756,6.372068c5.910371,1.97013,12.159845,3.67533,18.310546,4.760742c1.855687.32748,8.951134.826554,10.729976,1.538091Z" transform="matrix(-1 0 0-1 492.237828 266)" opacity="0.984314" fill="#8d723c"/><mask id="eMjZSXmzPwY5" mask-type="alpha" x="-150%" y="-150%" height="400%" width="400%"><path id="eMjZSXmzPwY6" d="M107.030152,137.59668c6.625125,0,12.610325.309649,18.493653,0c4.185044-.220266,16.38619-2.166165,20.324707-3.479004c12.418405-4.139469,18.016574-6.292654,29.589861-12.524419c2.212634-1.191423,4.615043-2.843781,6.55514-4.431143.951196-.778241,2.155299-1.230746,3.112793-2.01416c2.556516-2.091685,5.243808-4.024043,7.800311-6.115727c1.96915-1.611123,3.692798-3.692799,5.493164-5.493164c15.622118-15.622119,28.346931-36.24296,32.226563-58.22754.263454-1.492908.798534-2.938114,1.06202-4.431143c1.300168-7.367678,2.078861-15.359886,1.684562-22.851571-.091395-1.7365-.641027-3.390454-.732422-5.126954C232.472189,9.703877,232.362937,4.88372,231.17566,1c-2.055026.513756-3.571306,2.572413-4.72413,3.515616-3.845937,3.146692-8.165483,5.715401-12.011692,8.862309-6.789231,5.554815-27.254271,14.69999-35.888672,17.578125-10.740292,3.580096-21.574375,6.306095-32.739266,8.276381-7.558641,1.333867-20.163349,1.684561-27.978525,1.684561-4.616782,0-9.306529.242605-13.916016,0-1.853918-.097574-3.639245-.634847-5.493164-.732422C65.596508,38.456797,28.203958,23.655786,3.026246,1.366211l-.366211.366211c0,4.319599-1.27509,7.930321-1.464844,11.535644C0.280198,30.652944,2.585278,46.076021,8.04334,62.450191c.729053,2.187175,1.428067,4.587823,2.526843,6.628431c1.508233,2.800979,2.776354,5.731536,4.284672,8.532711.881546,1.637145,2.05746,3.162757,3.552251,5.053706.629321,2.517287,4.669483,8.249225,6.225585,10.620117c2.160335,1.945796,3.612258,3.824975,5.126954,5.67627c5.344492,6.532158,19.436768,18.297232,26.806645,22.26562c2.400786,1.292738,4.906667,2.416698,7.287584,3.698733c4.532443,2.440543,9.238744,4.739737,14.135756,6.372068c5.910371,1.97013,12.159845,3.67533,18.310546,4.760742c1.855687.32748,8.951134.826554,10.729976,1.538091Z" transform="matrix(-1 0 0-1 492.237828 373.763448)" opacity="0.984314" fill="#8d723c"/></mask></g><path d="M107.030152,137.59668c6.625125,0,12.610325.309649,18.493653,0c4.185044-.220266,16.38619-2.166165,20.324707-3.479004c12.418405-4.139469,18.016574-6.292654,29.589861-12.524419c2.212634-1.191423,4.615043-2.843781,6.55514-4.431143.951196-.778241,2.155299-1.230746,3.112793-2.01416c2.556516-2.091685,5.243808-4.024043,7.800311-6.115727c1.96915-1.611123,3.692798-3.692799,5.493164-5.493164c15.622118-15.622119,28.346931-36.24296,32.226563-58.22754.263454-1.492908.798534-2.938114,1.06202-4.431143c1.300168-7.367678,2.078861-15.359886,1.684562-22.851571-.091395-1.7365-.641027-3.390454-.732422-5.126954C232.472189,9.703877,232.362937,4.88372,231.17566,1c-2.055026.513756-3.571306,2.572413-4.72413,3.515616-3.845937,3.146692-8.165483,5.715401-12.011692,8.862309-6.789231,5.554815-27.254271,14.69999-35.888672,17.578125-10.740292,3.580096-21.574375,6.306095-32.739266,8.276381-7.558641,1.333867-20.163349,1.684561-27.978525,1.684561-4.616782,0-9.306529.242605-13.916016,0-1.853918-.097574-3.639245-.634847-5.493164-.732422C65.596508,38.456797,28.203958,23.655786,3.026246,1.366211l-.366211.366211c0,4.319599-1.27509,7.930321-1.464844,11.535644C0.280198,30.652944,2.585278,46.076021,8.04334,62.450191c.729053,2.187175,1.428067,4.587823,2.526843,6.628431c1.508233,2.800979,2.776354,5.731536,4.284672,8.532711.881546,1.637145,2.05746,3.162757,3.552251,5.053706.629321,2.517287,4.669483,8.249225,6.225585,10.620117c2.160335,1.945796,3.612258,3.824975,5.126954,5.67627c5.344492,6.532158,19.436768,18.297232,26.806645,22.26562c2.400786,1.292738,4.906667,2.416698,7.287584,3.698733c4.532443,2.440543,9.238744,4.739737,14.135756,6.372068c5.910371,1.97013,12.159845,3.67533,18.310546,4.760742c1.855687.32748,8.951134.826554,10.729976,1.538091Z" transform="matrix(-1 0 0-1 492.237828 266)" opacity="0.984314" filter="url(#eMjZSXmzPwY7-filter)" fill="none" fill-opacity="0" stroke="#ffd40b" stroke-width="5" stroke-opacity="0"/><g mask="url(#eMjZSXmzPwY10)"><path d="M295.155345,610.529302c10.437392,0,20.167345.143202,29.846191-.366211c1.853919-.097575,3.639246-.634847,5.493164-.732422c24.69381-1.299674,52.903561-7.282958,76.428205-15.124513c4.81186-1.603946,9.543473-3.449705,14.355496-5.053712c3.532739-1.17758,6.817132-3.151284,10.32713-4.321284c4.158325-1.386108,8.631781-3.380226,12.487784-5.456541c5.108946-2.750966,10.382005-5.195924,15.490741-7.946782c4.858345-2.616032,9.387352-5.84349,14.245614-8.459475c6.484513-3.491663,21.271376-14.440879,27.209446-19.299309c2.410223-1.971991,4.657765-4.143808,7.067889-6.115728c7.808586-6.388842,18.768799-16.632677,25.085449-24.353027c1.087755-1.329479,2.574354-2.332631,3.662109-3.662109c16.273576-19.889926,29.229828-36.601209,41.564942-59.509278c2.931096-5.443463,5.381947-11.145993,8.31297-16.589351c5.272467-9.791695,18.338215-47.275829,20.251483-58.11768.863415-4.892682,2.102979-9.719616,2.9663-14.611825.750379-4.252089,1.045126-8.607873,1.794442-12.853995c2.252362-12.763383,2.432372-25.707252,3.112793-38.635254.129384-2.458286.496727-4.84442.366211-7.324219-.148008-2.812146-.584414-5.610705-.732422-8.422851-.134547-2.556396.134547-5.134035,0-7.69043-.085165-1.618147-.647256-3.142595-.732422-4.760742-.531996-10.107932-2.124725-20.218821-3.881827-30.17579-.497203-2.817428-1.370505-5.568872-1.867667-8.38624-1.806754-10.238155-4.854716-20.496694-8.129909-30.322239-13.642512-40.92757-29.186823-68.835238-56.433097-102.136239-5.955758-7.279261-14.957161-17.730842-22.155761-23.620606-1.861271-1.522857-3.265683-3.604095-5.126954-5.126953-5.496033-4.496754-10.76366-9.272717-16.259774-13.769522-14.21405-11.629693-30.126584-21.912375-46.289072-30.615225-5.044605-2.716354-10.336168-4.974086-15.380859-7.69043-2.03767-1.097234-4.382206-1.655425-6.408691-2.746582-11.946224-6.432609-45.059789-16.568477-58.666975-18.969745-15.222793-2.686375-30.487414-5.228161-45.959472-6.04248-2.312929-.121733-4.645079.121733-6.958008,0-7.020071-.369478-14.195088-.737008-21.240234-.366211-3.821673.201141-8.093731.907842-11.71875,1.098633-1.582531.083291-3.178212-.083291-4.760743,0-3.334207.175484-6.831703.667049-10.107413,1.245126-3.498473.617367-10.702324,1.134671-15.271,1.940891-15.335839,2.706342-30.823767,5.831246-45.629896,10.766611-4.914934,1.638323-9.770438,3.452137-14.68505,5.090341-6.383355,2.127784-12.983279,5.019091-18.896475,8.203133-1.235291.665143-2.648914.947434-3.88185,1.611338-5.348891,2.880156-10.87471,5.433046-16.22314,8.31297-6.401848,3.447149-12.23898,7.942383-18.640146,11.389151-6.516859,3.509092-19.778301,14.218041-25.854483,19.189462C69.58592,105.79389,35.219221,153.38699,17.274484,207.221179C10.07852,228.809092,3.376396,257.051501,2.186595,279.65772c-.097575,1.853919-.634848,3.639245-.732422,5.493164-.346335,6.580366-.366211,13.175976-.366211,19.775391c0,3.766322-.197914,7.592169,0,11.352539.160459,3.048728.205682,6.105227.366211,9.155273.078855,1.49825.653566,2.896282.732422,4.394531c1.125125,21.37739,5.424966,46.08447,12.231443,66.503898c1.213687,3.641063,2.440732,7.322197,3.662109,10.986328.769855,2.309567,1.940097,4.501934,2.709964,6.811537c2.166187,6.498559,4.779417,13.061325,8.020023,19.079581.751935,1.396462,1.040896,3.031737,1.794432,4.431165c1.980754,3.67854,10.670922,21.061739,12.597654,23.840323h1.098632c.79191,2.635516,2.077658,4.155314,3.66211,6.225586l.366211,1.831055c1.71348,1.435105,4.765434,6.234971,6.225586,8.056641l.366211,1.831054l15.380859,20.141602c1.510964,1.203657,2.680237,2.524331,3.662109,4.394531l8.789063,9.155274c3.787709,3.772009,11.800616,13.487503,15.74707,15.74707.632958,1.011601.958737,1.604114,2.197266,2.197266c2.364267,2.526497,12.654162,11.533796,15.014648,12.817382c2.946418,3.035879,22.086455,16.527087,22.338867,17.211914c3.431498,1.081358,12.823877,7.792522,16.442881,9.741214c3.654542,1.967833,7.292186,3.926564,10.949693,5.895998.825252.444359,1.884718.50778,2.70997.952139c1.670946.899748,3.30918,1.810044,4.98046,2.70997c3.143654,1.69273,12.482092,5.625536,15.930176,6.774897c2.282168.760722,4.395285,2.099861,6.665043,2.856446c5.546433,1.848812,11.030979,3.945548,16.552739,5.786134c23.75274,7.917581,57.079024,14.355468,82.873531,14.721679Zm-1.098633-17.944336c-2.140216-.366211-3.353124-.667974-4.577637-.732422-1.825996-.096105-3.667167.096105-5.493164,0-2.087459-.109866-4.138127-.622555-6.225586-.732422-20.360695-1.071615-45.133089-7.744558-64.526372-14.20898-15.490301-5.16344-30.778562-11.558806-45.153804-19.29932-5.103032-2.747787-9.91185-6.041403-15.014648-8.789063-7.989201-4.301877-22.186195-15.455698-29.479981-21.42334-2.539246-2.077565-4.785145-4.514373-7.324218-6.591797-11.850263-9.695669-23.197628-22.37121-32.849126-34.167476-28.687778-35.06285-50.787443-78.811165-58.703609-123.669438-2.292409-12.990322-4.239806-23.061202-4.943847-36.437988-.097575-1.853919-.634848-3.639246-.732422-5.493164-.261758-4.973393,0-10.033383,0-15.014649c0-5.710231-.300064-11.510707,0-17.211914c1.112773-21.14269,6.75724-49.129142,13.476558-69.287091c6.740073-20.220224,13.241169-35.210869,23.327641-53.942889c2.232842-4.146707,5.055107-7.975529,7.287595-12.121573c2.278587-4.231665,5.156505-8.581047,8.203123-12.304679c3.80618-4.65201,7.033903-9.777017,10.839846-14.42872c12.384111-15.136142,25.90404-28.285396,41.015636-40.649414c2.715618-2.221885,5.277346-4.677913,8.64257-6.921395l16.113281,14.648437c12.310424,8.866608,26.021497,14.93604,39.66064,19.482404c1.671798.557283,3.248519,1.497895,4.907235,2.050817c6.528055,2.176002,13.066454,4.725821,19.116216,7.983372c1.382968.744689,2.925454,1.152707,4.321284,1.904323c3.372948,1.816188,18.100241,10.170491,20.617672,12.524397-.433396.599704-15.655823,8.923034-17.175302,9.741202-8.81273,4.745329-28.062201,21.073981-34.460441,28.894052-2.140808,2.616544-4.341162,5.183795-6.481938,7.80031-1.767657,2.160458-3.17609,4.614299-4.943847,6.774903-1.399111,1.710011-3.117774,3.721577-3.955074,6.481915-2.327836,3.55704-4.643405,6.609306-6.408691,9.887696-1.716203,3.187234-3.300896,6.44413-5.017095,9.631365-2.382427,4.424499-4.203238,9.606783-5.786128,14.355451-3.435211,10.305634-5.572791,18.029347-7.470712,28.784171-.527798,2.990914-1.158568,5.899687-1.31835,8.935556-.097575,1.853918-.634848,3.639245-.732422,5.493164-.210683,4.002975,0,8.07565,0,12.084961c0,3.766322-.197915,7.592169,0,11.352539.078855,1.49825.653566,2.896281.732422,4.394531.612618,11.639747,3.040567,23.550412,6.73829,34.643546c4.682467,14.047437,6.835801,19.810041,13.916015,32.958984c1.288784,2.393481,2.218659,5.072948,4.614249,7.287607.834909,4.643241,6.225586,7.081567,6.225586,11.169433c0,.342691-5.775997,21.25604-6.445303,25.048837-3.788416,21.467629-2.436464,47.402542,4.467755,68.115235c1.282769,3.84827,2.396509,7.851164,4.321307,11.425774c1.054566,1.958495,1.580341,4.190514,2.636701,6.15234c1.692066,3.142393,8.927895,17.731711,11.132821,19.812014.895636.692639,1.216786,1.057341,1.464844,2.197265c1.989211,2.879789,4.366477,5.23508,6.225586,7.507324c9.096638,11.118113,15.809072,16.097426,26.660152,24.975591c2.523754,2.064881,7.171748,4.123781,9.594731,6.701656c3.049924,1.921232,6.194844,2.870879,8.75245,4.248049c10.988142,5.916694,23.513376,9.577957,35.852038,11.755373c1.126182.198733,2.276292.057024,3.405757.256341c2.794563.493159,5.728007,1.168817,8.569345,1.318362c3.286794.172989,6.600901-.17299,9.887695,0c6.467287.340383,12.927243.341154,19.40918,0c1.406953-.074051,2.746944-.467977,4.138201-.622564c14.097353-1.56637,32.140024-5.643761,44.714347-12.414548c2.783314-1.49871,5.602867-2.932421,8.386239-4.431155c1.94215-1.045778,3.661103-2.506599,5.603001-3.552239c3.259576-1.755154,6.695067-4.212685,9.558096-6.555174c2.011414-1.645691,3.957979-3.371503,5.969256-5.017094c4.350539-3.559532,9.03564-7.503521,12.634278-11.901855c8.001728-9.779891,15.297394-19.881963,21.313458-31.054683c4.341164-8.062133,7.153651-16.846645,10.034189-25.488295c5.716804-17.150377,6.381563-43.500939,3.259286-61.193839-.677417-3.838696-1.291861-8.050387-2.526864-11.755362-.803156-2.409503-5.037965-14.434162-4.72413-16.003422.530465-2.652242,4.700033-7.002182,6.115749-9.631344c2.122053-3.94098,4.506192-7.740876,6.628409-11.682137c7.038821-13.072096,14.931602-32.732526,17.504901-47.314458c2.489217-14.105659,4.3111-28.171757,3.552228-42.590328-.085165-1.618146-.647256-3.142595-.732422-4.760742-.440288-8.36548-2.143922-16.63233-4.174813-24.75585-6.933015-27.732103-18.892588-49.254698-36.840812-71.191415-2.148164-2.625535-4.92373-4.923731-7.324218-7.324219-8.570884-8.570883-19.327102-17.308569-30.029297-23.071289-2.483752-1.337405-5.096755-2.434536-7.580549-3.771991-1.859669-1.001333-3.666467-2.335662-6.335467-3.002912c1.777259-1.437946,7.737083-6.405642,10.327131-7.80031c6.642873-3.576904,13.168171-7.372227,19.812047-10.949672c4.752038-2.558817,25.749562-10.438679,31.567365-12.377947c6.88617-2.29539,13.232468-6.336413,19.555673-9.741202c5.858662-3.154678,12.72964-8.994307,17.431632-13.696298c1.266046-1.266046,4.474458-5.355233,6.29881-4.833967c1.278137.365159,2.301024,1.749456,3.295899,2.563477c5.368819,4.392637,10.671576,8.864425,16.040056,13.256818c1.901312,1.555619,9.587866,9.775548,11.022941,10.949716c2.398169,1.962122,5.484189,5.115963,7.470712,7.543936c1.695352,2.072098,7.01985,8.797398,8.789062,10.803223c1.132035,1.165437,12.838185,16.737501,13.183594,17.578125.895636.692639,1.216785,1.057341,1.464844,2.197266c1.472613,1.846593,2.957715,3.098315,3.662109,5.493164c1.012712.926791,1.476087,1.843904,2.563477,2.563476.46371,2.416051,5.976048,10.54906,7.177725,12.780771c3.984566,7.399883,12.247924,22.900961,14.721707,30.322239c1.938534,5.815675,4.643961,11.368478,6.591797,17.211914c7.880878,23.642706,13.772638,48.179517,15.087872,73.168963.103728,1.970817.628695,3.888558.732422,5.859375.347455,6.601637.347455,20.131761,0,26.733398-.103727,1.970817-.628694,3.888559-.732422,5.859375-.089698,1.704264.089698,3.42269,0,5.126953-.085165,1.618147-.647256,3.142596-.732422,4.760743-1.373186,26.090536-13.328618,69.744778-25.781259,92.871084-1.044733,1.940245-1.628516,4.175363-2.673313,6.115728-2.309418,4.28889-4.575179,8.601364-6.884783,12.890629-.962755,1.787974-2.296701,3.375931-3.259286,5.163565-2.571829,4.776278-5.637535,10.51176-9.082005,14.721684-3.316532,4.053522-5.875411,8.727265-9.19193,12.780771-4.615446,5.641118-9.190842,11.314649-13.806135,16.955562-1.087755,1.329479-2.574354,2.332631-3.662109,3.662109-9.70089,11.856644-21.842237,21.932534-33.618182,31.567388-9.869061,8.074696-23.632127,17.316718-34.863263,23.364253-5.494379,2.958512-11.094432,5.720394-16.589374,8.679204-4.096897,2.206027-13.530225,6.170233-17.980948,7.653806-6.484248,2.161417-13.962968,5.240261-20.98386,7.58056-22.909574,7.636523-48.743025,12.35675-72.802752,13.623051-1.498249.078855-2.896281.653567-4.394531.732422-8.309297.437331-16.762967,0-25.817871,0Zm6.591797-31.12793c-12.60763-.366211-23.658504-2.844664-34.680181-6.51855-35.717219-11.905746-64.672077-41.6725-76.538085-77.270508-4.713697-14.141107-7.123543-29.227811-6.335445-44.201664.103727-1.970817.628694-3.888559.732422-5.859375.080621-1.531814-.085725-3.054268.183105-4.577637.575617-3.261828,3.699003-20.699026,5.749516-20.4712.581078.064573,3.792304,3.483073,4.687496,4.72413l19.40918,15.380859c6.378051,4.417328,12.930872,7.455754,19.07958,10.766611c25.2541,13.598347,57.281597,18.568486,85.839853,17.06542c1.618147-.085165,3.142595-.647256,4.760742-.732422c13.024623-.685506,26.014665-3.642258,38.378924-7.763676c12.234344-4.078116,34.793883-14.984512,44.677735-23.071289c4.636103-3.793185,9.353255-7.486214,13.98924-11.279292c1.462426-1.196531,2.565894-2.83179,4.02832-4.028321.2848-.233018.783031-.520515,1.135245-.256352c1.495488,1.121614,4.055938,13.56168,4.174814,15.820317.167233,3.177441,1.296785,6.328377,1.464843,9.521485.629419,11.958961-.009871,21.296173-2.087384,33.068843-2.118583,12.005209-6.697378,23.738182-12.451172,34.423828-1.221369,2.268228-2.770516,4.360478-3.991708,6.62842-1.418125,2.633645-3.071922,5.504237-4.98046,7.836912-2.308284,2.821218-4.576583,5.674964-6.884783,8.496098-1.503715,1.837873-3.446612,3.446612-5.126954,5.126953-12.197017,12.197018-27.21064,23.596581-43.762207,29.11377-5.016844,1.672281-10.022536,3.944406-15.270978,4.870601-15.703288,2.77117-19.220854,3.186039-36.181658,3.186039Zm-2.197266-128.173828c-14.605103-.366211-28.662424-3.697735-42.114258-8.422851c1.414373-4.451459,2.492182-8.245589,3.698722-11.865244c4.427-13.280965,13.619549-25.159142,24.316415-33.911124c2.075539-1.698168,11.170956-9.155273,14.099121-9.155273c0,3.250864.366211,5.543045.366211,7.873535c0,10.934486-.57459,22.04178,0,32.958985.097575,1.853918.634847,3.639245.732422,5.493164.237059,4.504124-.237059,9.04568,0,13.549804.046915.891386.368751,1.654935.732422,3.112793l-.366211.366211h-1.464844Zm18.310547,0c-.638116-7.635363-.714853-14.432927-.366211-21.057129.523515-9.946786,0-20.066765,0-30.029297c0-6.063961.366211-12.073065.366211-18.859863c2.381795,1.566014,7.46192,4.091047,9.667978,5.895987c14.112725,11.546791,19.906668,22.513011,25.598153,39.587416.768084,2.304301,5.098824,14.704655,4.321262,16.259752-.651532,1.303093-7.547949,2.848303-9.191885,3.259287-8.090513,2.022628-21.545907,4.943847-30.395508,4.943847Zm-78.00293-16.113281c-3.765322-2.514312-7.014614-4.354587-10.217294-6.079093-6.544407-3.523925-17.363236-12.874624-23.291006-17.724618-2.012779-1.646819-8.506491-7.222788-9.045415-9.558096-.734905-3.184616,11.82495-18.660078,14.355473-21.752939.97898-1.196531,2.316919-2.099368,3.295899-3.295899c12.198256-14.90898,39.930991-31.811549,57.092294-41.052237c4.137554-2.227927,7.910936-5.13302,12.048326-7.360853c3.066456-1.651162,9.434129-7.442261,12.89063-8.53271c0,6.747377-.306453,12.671052,0,18.493652.058982,1.120666.673439,2.175233.732421,3.295898.223452,4.24558,0,8.565084,0,12.817383c0,3.118842,1.891702,9.251908.366211,12.084961-.43508.808007-10.775179,6.534442-12.377925,7.397466-5.860944,3.155886-10.913785,8.03057-16.003422,12.194819-9.126137,7.46684-21.327412,26.775203-25.048837,37.939445-1.075602,3.22684-1.816534,7.002234-3.332511,10.76661l-.366211.366211h-1.098633Zm137.329102-.366211c-.468361-4.240272-2.199831-7.807988-3.222674-10.876469-6.350367-19.05115-17.011218-35.890935-32.629386-48.66942-4.585028-3.751403-9.904881-7.333487-15.124485-10.144048-1.469852-.791454-5.707583-2.438497-6.445348-3.808603-1.2501-2.321643-.073224-9.451781-.073224-12.377925c0-10.699658.366211-21.361211.366211-32.775879c4.37505,5.46719,7.860943,10.586212,12.817382,15.38086c1.589239.794619,7.865822,6.718653,9.411604,7.983394c4.759898,3.894451,19.855417,13.368046,21.716326,15.454106c3.399615,2.1835,6.665739,3.439626,9.265155,5.56641c2.83439,2.319057,6.027829,4.199449,8.862287,6.518551c2.696171,2.205958,5.65335,4.092798,8.349627,6.298832c5.844531,4.7819,11.360504,9.74919,16.735822,15.124507c2.142039,2.14204,11.684247,12.002641,11.865243,14.355474.130851,1.701169-7.540216,8.339888-9.118661,9.631343-9.935234,8.128828-16.40874,13.708898-28.015137,19.958496-1.350784.727345-2.661836,1.783592-4.760742,2.380371Zm53.100586-46.508789c-1.669588-2.226117-3.204962-3.48993-4.394531-4.943848-11.613764-14.1946-26.896895-24.470151-40.539533-35.632319-6.821669-5.581355-14.638403-9.946059-21.459997-15.527353-3.824927-3.129496-7.601141-6.319002-11.425763-9.448238-9.425519-7.711788-18.641753-17.804316-21.67967-29.956072-.365713-1.462762-.842303-2.953175-.842303-5.200178c2.455734,1.342201,4.135741,3.16101,5.859375,5.126953c2.226825,1.113413,5.442831,3.34341,6.958008,5.126953c1.478493.742659,2.430783.982527,3.295898,2.197266c1.6241.907603,3.106803,1.405278,4.101545,1.940936c3.425872,1.844673,6.790655,3.684649,10.217294,5.529776c3.114878,1.677228,6.72096,2.435822,9.814471,4.101545c4.172299,2.246636,9.893121,4.201039,14.42872,5.712881c2.580188.860087,5.161986,2.159817,7.543936,3.442392c3.007262,1.619309,6.497286,2.39992,9.521485,4.02832c9.298987,5.007161,19.096354,9.831516,27.355939,16.589374c2.657091,2.173967,16.646931,12.137384,17.06542,14.648437.332422,1.994416-7.174373,17.592834-8.605957,20.251461-1.20204,2.232388-4.821857,10.101399-6.481915,12.011714h-.732422Zm-245.727539-3.295898c-6.546677-8.728903-10.801503-19.257535-13.952628-28.710947-.598731-1.796157-3.552311-8.38611-2.819829-9.851061c1.343183-2.686379,19.193784-13.433829,22.741691-15.344247c3.143169-1.692469,6.572515-2.891128,9.704589-4.577637c11.24882-6.05705,35.441731-12.399841,48.449703-16.735844c3.757691-1.252552,7.338891-3.032222,11.096209-4.28465c5.535735-1.845257,11.903821-6.099893,17.102033-8.898944c3.973224-2.139414,7.18407-5.521787,11.315927-8.276358-4.582241,12.37113-9.178812,17.44757-18.603511,25.158674-1.422516,1.16389-3.155081,1.948898-4.577637,3.112793-3.017161,2.4686-6.639059,4.927056-10.070801,6.774924-4.496906,2.421404-8.430386,5.891596-12.927241,8.312993-3.66929,1.975758-9.301069,5.712311-12.524419,8.349605-2.830474,2.315834-5.92195,4.312553-8.75245,6.628409-8.503872,6.957722-18.117732,15.836938-25.085449,24.353027-3.430658,4.193036-7.262379,10.130926-11.096187,13.989263Zm267.333984-49.438477c-1.613777-2.151703-3.223294-3.286432-4.577637-4.394531-.797687-.652653-1.399578-1.544613-2.197265-2.197266-7.132013-5.835283-14.748816-11.85731-22.924796-16.259774-5.05606-2.722481-9.994589-5.663389-15.051261-8.38624-2.228627-1.200002-5.20643-2.037893-7.250994-4.28465c2.30561-.514509,3.678354-1.165083,5.126953-1.647949c13.370312-4.456771,27.958645-6.405718,41.931152-7.141113c2.770549-.145819,5.452034-.732422,8.972168-.732422l.366211.366211c0,1.871153.315212,2.87623.366211,3.845214.27101,5.149178.27101,10.597893,0,15.747071-.167795,3.188102-1.059506,11.374961-1.611337,14.501944-.455566,2.5816-2.050772,7.551157-2.050772,10.583505h-1.098633Zm-288.94043-10.986328c-1.274073-10.82196-1.98522-20.691448-1.464843-30.578613.107594-2.044298.732422-3.981793.732422-6.774903l.36621-.366211c11.720686,0,31.080634,2.657575,41.345224,6.079093c1.43481.478282,11.121541,3.910037,11.352539,4.834011.211328.845328-1.917211,1.298229-2.417005,1.464844-4.18088,1.39361-13.487446,4.952509-17.211914,6.958008-2.509818,1.351425-5.290313,2.200703-7.800289,3.552228-4.425992,2.383226-8.757975,4.941194-13.183594,7.324219-2.6727,1.439146-8.939496,6.81251-11.71875,7.507324Zm75.439454-39.18457c-2.397964-.909581-4.05522-1.02215-5.603023-1.538069-5.6124-1.870816-10.923508-4.642162-16.552739-6.518572-15.829758-5.276586-32.496301-8.789063-49.987793-8.789063l-.366211-.366211c0-4.852644,8.052844-23.718186,10.327153-27.941912c2.009542-3.731997,3.996736-7.474817,6.005846-11.206046.985994-1.831106,2.361283-3.541902,3.515638-5.273446c10.375132-15.562686,25.186053-30.889808,40.759273-41.271955c7.79158-5.194386,18.515252-11.86217,28.198242-11.352539c5.463874.287572,13.934621,7.83524,17.321773,11.97508c1.117747,1.366147,4.166246,6.866868,5.2002,8.166522c5.406553,9.714473,8.509865,18.498449,10.363765,29.003888.405074,2.295414,1.232879,4.747883,1.354985,7.067889.184508,3.505654-.550345,6.79444-.732422,10.253906-1.218486,23.151231-17.423991,43.551902-40.612802,47.644034-2.717352.479543-5.70532.146494-9.191885.146494Zm132.202148,0c-3.837202-1.534881-8.94039-1.588583-13.879403-4.248038-6.69537-3.605213-12.34981-8.054844-17.175302-13.952628-1.001146-1.223662-1.748907-2.724862-2.490208-4.101589-6.220805-11.552899-9.637934-23.129418-8.935556-36.474601.864345-16.422545,6.855519-31.653707,17.211914-44.311523c1.077446-1.316879,2.142261-2.751516,3.479004-3.845215c1.278967-1.046427,2.639403-1.993052,3.918439-3.039569c2.489721-2.037011,6.118071-4.375537,9.338379-4.943848c7.044258-1.243083,17.866298,4.910287,23.913592,8.166522c2.893752,1.558174,6.146955,2.906661,8.789063,5.67627c3.312345,2.411968,6.667455,3.853208,9.521484,6.591797.529839,1.135646,8.608706,7.775169,9.887696,9.338379c1.691583,2.06749,3.801771,3.792117,5.493164,5.859375c3.540011,4.32668,6.728639,9.023927,10.986328,13.366699.321791,1.642271,4.584023,8.587098,5.859375,9.521484.479692,2.511945,4.575166,9.307633,5.676269,11.352539c2.929216,5.439972,10.070801,24.617621,10.070801,31.12793-12.223916,0-41.909695,4.948902-52.770987,8.569345-5.837,1.945655-12.581564,4.094404-18.640146,5.163565-3.066538.541154-6.41512.183106-10.253906.183106ZM331.776438,144.708989c.89254-3.513088.80836-6.197051,1.574725-8.496075c2.410227-7.230753,8.038213-17.396621,13.98924-22.265643c20.269546-16.584174,47.421755-18.158637,66.943378-34.130842c6.561981-5.368926,13.125535-11.454031,17.211914-19.042969c1.181608-2.194466,5.427216-11.1797,5.493164-11.20609.780715-.312276,22.059414,11.268269,24.06004,13.47658l5.493164,2.929688c-13.973752,16.030308-27.388676,22.862469-46.691894,29.296875-5.925526,1.975175-11.616526,4.653425-17.541513,6.628409-8.945085,2.981707-21.012577,10.582056-29.516593,15.161142-6.54266,3.522971-24.203177,14.74223-29.772967,19.299298-1.410324,1.153935-9.675186,7.95776-11.242658,8.349627Zm-50.170898-.36621c-1.634984-2.17998-18.975869-14.359564-21.716304-16.186506-15.692472-10.461663-32.61578-19.978388-50.573744-25.964364-5.726647-1.908895-11.19165-4.609469-16.918927-6.518573-11.655735-3.885233-22.920041-9.93039-32.446303-17.724618-1.201939-.983391-2.240533-2.166069-3.442369-3.149405-2.519703-2.061559-6.001165-4.787947-7.470712-8.459464c7.891133-4.687062,21.062695-13.285494,29.296875-16.113281l.366211.366211c1.144812,1.918473,4.757983,13.776272,16.113281,24.169921c3.265389,1.632695,5.167416,5.075084,8.789062,6.225586c1.153722,1.126178,3.87976,2.799697,4.760742,4.028321c2.168658.471712,3.254421,1.653784,4.467778,2.307146c3.086503,1.661948,6.424392,2.783191,9.48485,4.431144c3.776647,2.033565,8.087522,3.330594,12.158208,4.687473c1.673527.557859,3.233708,1.492958,4.907235,2.050817c11.831313,3.943755,24.157443,9.83174,32.263175,19.738734c4.454728,5.44468,7.428678,11.592679,9.631343,18.20071.29621.888593.824931,1.744862.988774,2.673313.248343,1.407266-.221378,3.182741.439458,5.236835h-1.098633Zm25.634766-12.451172c-15.822121-21.096162-30.024829-36.341238-25.122062-64.123527c2.502758-14.182353,9.557225-26.78703,17.431632-38.598641c1.020447-1.530672,7.185258-10.722623,8.459464-10.510236c1.719667.286592,6.616632,8.775565,8.75245,10.693341l.366211,1.831055c1.975665,2.852697,3.851104,5.190206,5.236834,7.763654c4.539567,8.430674,8.352413,17.423233,10.034144,26.953161c3.74175,21.203131-4.123212,40.220149-17.358363,56.396484-2.496869,3.05169-4.623099,6.486768-7.80031,9.594709ZM262.928782,88.312505c-3.128804-1.037775-12.618838-5.439189-15.966788-6.555185-14.607505-4.869156-29.170378-10.566845-40.246591-21.643057-2.139734-2.139735-12.464183-16.768473-9.997554-18.786639c1.366624-1.118132,3.555276-1.575701,5.2002-2.123997c4.598832-1.532956,9.060099-3.483912,13.659663-5.017116c14.933726-4.977893,30.386612-8.507432,45.886226-11.242658c2.68409-.473663,19.890496-2.160654,21.240235-3.112793-.483557,2.329775-9.506018,16.030259-11.315927,21.459952-.832553,2.497694-2.060489,4.863142-2.893053,7.360831-3.637343,10.912034-5.808022,22.801987-5.2002,34.350604.080886,1.536828.366211,3.033244.366211,5.310058h-.732422Zm87.524414-.732422c1.140279-4.674283.562687-12.563354.366211-16.296386-.818145-15.544765-6.451407-29.873205-13.73291-43.395997-1.210358-2.247807-3.683026-5.138696-4.577637-8.05664c4.893045,0,8.88303.630524,12.780771,1.31835c2.813867.496576,5.731745.494491,8.532688.988797c16.097797,2.840766,31.950646,6.743941,47.424316,11.901855c2.988046.995991,17.836169,5.944981,19.885272,7.763654-1.895507,2.744238-4.611328,12.911533-13.000488,19.775391-16.549956,13.540873-37.288882,18.75313-57.678223,26.000976Z" transform="matrix(-1 0 0-1 683.125583 680.773655)" opacity="0.984314" fill="#8d723c"/><mask id="eMjZSXmzPwY10" mask-type="alpha" x="-150%" y="-150%" height="400%" width="400%"><circle id="eMjZSXmzPwY11" r="27.5" transform="matrix(11.747533 0 0 11.747549 366.849171 1002.842146)" fill="#5483cc"/></mask></g>
<script><![CDATA[
!function(t,e){"object"==typeof exports&&"undefined"!=typeof module?module.exports=e():"function"==typeof __SVGATOR_DEFINE__&&__SVGATOR_DEFINE__.amd?__SVGATOR_DEFINE__(e):((t="undefined"!=typeof globalThis?globalThis:t||self).__SVGATOR_PLAYER__=t.__SVGATOR_PLAYER__||{},t.__SVGATOR_PLAYER__["7c8cb2ed"]=e())}(this,(function(){"use strict";const t=n(Math.pow(10,-6)),e=n(Math.pow(10,-2));function n(t,e=6){return function(t,e,n){if(Number.isInteger(t))return t;const r=Math.pow(10,e);return Math[n]((+t+Number.EPSILON)*r)/r}(t,e,"round")}function r(e,n,r=t){return Math.abs(e-n)<r}n(Math.pow(10,-4));const i=Math.PI/180;function s(t){return t*i}function o(t){return t/i}function u(t){return"number"!=typeof t&&(t=Number(t)),isNaN(t)||!isFinite(t)?0:t}let l={iD:!1};function a(t){return`${t}`.replace(/['"]/g,"")}function c(t,e="px"){return t.endsWith(e)?t:`${t}${e}`}function f(t=""){return l.iD?t:void 0}function h(t){const e=["^","\\s*","(matrix\\()","(?<a>-?[0-9]*\\.?[0-9]+)","\\s*",",?","\\s*","(?<b>-?[0-9]*\\.?[0-9]+)","\\s*",",?","\\s*","(?<c>-?[0-9]*\\.?[0-9]+)","\\s*",",?","\\s*","(?<d>-?[0-9]*\\.?[0-9]+)","\\s*",",?","\\s*","(?<e>-?[0-9]*\\.?[0-9]+)","\\s*",",?","\\s*","(?<f>-?[0-9]*\\.?[0-9]+)","\\)"].join(""),n=t.match(new RegExp(e,"i"));if(n)return[u(n.groups.a),u(n.groups.b),u(n.groups.c),u(n.groups.d),u(n.groups.e),u(n.groups.f)]}function d(t,e="inline"){return t&&t!==e?(t=a(t))===e?f(e):t:f(e)}function g(t,e="1px"){if(!t||t===e)return f(e);if(t.endsWith("px")||t.endsWith("%"))return t;const r=c(t=`${n(u(t),2)}`);return r===e?f(e):r}function p(t,e="none"){if(!t||t===e)return f(e);if((t=a(t))===e)return f(e);const n=t.match(/url\(#.+?\)/);return n?n[0]:function(t){const e=["^","\\s*","url\\(","#","(?<maskId>[a-zA-Z0-9\\-_]+)","\\)"].join(""),n=t.match(new RegExp(e,"i"));if(n)return`url(#${n.groups.maskId})`}(t)}function y(t,e="rgb(0, 0, 0)"){if(!t||t===e)return f(e);if((t=a(t))===e)return f(e);if(t.startsWith("rgb"))return t;const n=function(t){if("string"!=typeof t||"#"!==t[0])return t;const e=t.slice(1),n=e.length;if(3!==n&&6!==n)return t;for(let r=0;r<n;r++){const n=e.charCodeAt(r);if(!(n>=48&&n<=57||n>=65&&n<=70||n>=97&&n<=102))return t}if(3===n)return`rgb(${parseInt(e[0]+e[0],16)}, ${parseInt(e[1]+e[1],16)}, ${parseInt(e[2]+e[2],16)})`;return`rgb(${parseInt(e.slice(0,2),16)}, ${parseInt(e.slice(2,4),16)}, ${parseInt(e.slice(4,6),16)})`}(t);return n===e?f(e):n}function m(t,e="1"){return t&&t!==e?(t=`${n(u(t),3)}`)===e?f(e):t:f(e)}let v={};const b={fill:"none",stroke:"none",opacity:"0.01",transform:"matrix(0.001 0 0 0.001 -10000 -10000)"};function w({element:t,tagType:e="path",property:n="d",attributeValue:r}){return v[r]||(v[r]=function({element:t,tagType:e="path",property:n="d",attributeValue:r}){const i=t.ownerSVGElement,s=document.createElementNS(i.namespaceURI,e);s.setAttributeNS(null,n,r);for(const t in b)s.setAttributeNS(null,t,b[t]);i.appendChild(s);const o=getComputedStyle(s)[n];return s.remove(),o}({element:t,tagType:e,property:n,attributeValue:r})),v[r]}const x=()=>{v={}};"object"==typeof window&&(window.removeEventListener("resize",x),window.addEventListener("resize",x));const A={include:(t,e)=>["path"].includes(e),formatter:t=>function(t,e=""){return t&&t!==e?(t=a(t))===e?f(e):t.startsWith("path(")?t:`path('${t}')`:f(e)}(t)},_={include:(t,e)=>["rect","mask"].includes(e),formatter:(t,e,n)=>g(t,function(t,e){var n;return(null===(n={mask:{x:"-150%",y:"-150%",width:"400%",height:"400%"}}[e])||void 0===n?void 0:n[t])||(["x","y"].includes(t)?"0px":"100%")}(e,n))},k=Object.freeze({d:A,display:t=>d(t),height:_,fill:t=>y(t),"fill-opacity":t=>m(t),filter:t=>d(t,"none"),mask:t=>p(t),opacity:t=>m(t),stroke:t=>y(t,"none"),"stroke-opacity":t=>m(t),"stroke-width":t=>g(t),transform:t=>function(t,e="none"){if(!t||t===e)return f(e);const n=h(t);return n?`matrix(${n.join(", ")})`:t}(t),"transform-origin":t=>function(t,e="0px 0px"){if(!t||t===e)return f(e);const n=["^","\\s*","(?<x>[0-9]+)","(px)?","\\s*",",","\\s*","(?<y>[0-9]+)","(px)?"].join(""),r=t.match(new RegExp(n,"i"));if(!r)return t;let i=`${u(r.groups.x)}`;i=c(i);let s=`${u(r.groups.y)}`;s=c(s);const o=`${i} ${s}`;return o===e?f(e):o}(t),visibility:t=>d(t,"visible"),width:_,x:_,y:_}),S=Object.keys(k),E=e;function O(t,e,n,i,s=window){var o,u;const l=t.getAttribute(e),a="transform"===e?"none":"",c=(s.safari||function(t){var e,n;const r=null==t?void 0:t.userAgent;return(null==t||null===(e=t.vendor)||void 0===e||null===(n=e.indexOf)||void 0===n?void 0:n.call(e,"Apple"))>-1&&r&&-1==r.indexOf("CriOS")&&-1==r.indexOf("FxiOS")}(null==s?void 0:s.navigator))&&!s.chrome&&(null===(o=i.getPropertyValue)||void 0===o?void 0:o.call(i,e))===a||"mask"===n?l:null===(u=i.getPropertyValue)||void 0===u?void 0:u.call(i,e);if(l&&c){if(l===c)return l;switch(e){case"transform":return function(t,e){const n=h(t),i=h(e);if((null==n?void 0:n.length)===(null==i?void 0:i.length)){for(let t=0,e=n.length;t<e;t++)if(n[t]!==i[t]&&(s=i[t],!r(((o=n[t])-s)/(o||1)*100,0,E)))return;var s,o;return t}}(l,c);case"d":return function(t,e,n){return w({element:t,attributeValue:e})===n?e:void 0}(t,l,c);default:return c}}}function I(t,e,n,r){var i,s,o,u;const l="transform"===e||["mask","path"].includes(n)&&["x","y","width","height","d"].includes(e);return r&&l?O(t,e,n,r):(null===(i=r.getPropertyValue)||void 0===i?void 0:i.call(r,e))??(null===(s=t.attrs)||void 0===s||null===(o=s.style)||void 0===o?void 0:o[e])??(null===(u=t.attrs)||void 0===u?void 0:u[e])}function M(t,e,n=!1){l.iD=n;const r="undefined"!=typeof window&&getComputedStyle(t),i={};for(let l=0,a=S.length;l<a;l++){var s,o,u;const a=S[l],c=t.type||t.nodeName;if(!1===(null===(s=(o=k[a]).include)||void 0===s?void 0:s.call(o,a,c)))continue;const f=k[a].formatter||k[a];if(null!=e&&null!==(u=e[t.id])&&void 0!==u&&u[a])continue;const h=I(t,a,c,r);if(null==h&&!n)continue;const d=f.call(this,h,a,c);d&&(i[a]=d)}return i}function j(t){var e,n;if(null==t||null===(e=t.wD)||void 0===e||!e.length)return;this.h=t.wD.shift();const r=null===(n=t.rootId)||void 0===n?void 0:n.slice(0,-1);this.wIs=t.wD.map((t=>`${r}${t}`))}function B(t){const e=new j(t),n=t.svg,r=e.wIs,i=t.originalAnimations[0].elements,s=e.h;function o(t,e,s){var u;if(e[t])return;const l=n.querySelector("#"+t),a=null==l||null===(u=l.parentElement)||void 0===u?void 0:u.id;if(l&&a){if(r.includes(a))return e[a]||o(a,e,s),e[a].children??=[],e[t]=M(l,i),void e[a].children.push(e[t]);e[t]=M(l,i),s.push(e[t])}}async function u(){const t=function(){let t=[],e={};for(let n=0,i=r.length;n<i;n++)o(r[n],e,t);return t}();return await async function(t){var e,n;const r=JSON.stringify(t),i=(new TextEncoder).encode(r),o=await(null===(e=window.crypto)||void 0===e||null===(n=e.subtle)||void 0===n?void 0:n.digest("SHA-256",i));return o&&Array.from(new Uint8Array(o)).map((t=>t.toString(16).padStart(2,"0"))).join("")||s}(t)}this.vH=async function(){await u()!==s&&requestAnimationFrame((()=>t.stop()))}}function N(t){let e=0,n=0;const r=new B(t);this.cF=function(i,s){return t.wD?(e++,function(t){return!(t-n<300)&&(t-n>=500||e>=3)}(i)?(e=0,n=i,window.requestAnimationFrame((()=>r.vH())),s()):s()):s()}}function T(t){return t}function P(t,e,n){const r=1-n;return 3*n*r*(t*r+e*n)+n*n*n}function F(t=0,e=0,n=1,i=1){return t<0||t>1||n<0||n>1?null:r(t,e)&&r(n,i)?T:s=>{if(s<=0)return t>0?s*e/t:0===e&&n>0?s*i/n:0;if(s>=1)return n<1?1+(s-1)*(i-1)/(n-1):1===n&&t<1?1+(s-1)*(e-1)/(t-1):1;let o,u=0,l=1;for(;u<l;){o=(u+l)/2;const e=P(t,n,o);if(r(s,e))break;e<s?u=o:l=o}return P(e,i,o)}}function R(){return 1}function C(t){return 1===t?1:0}function V(t=1,e=0){if(1===t){if(0===e)return C;if(1===e)return R}const n=1/t;return t=>t>=1?1:(t+=e*n)-t%n}Number.isInteger||(Number.isInteger=function(t){return"number"==typeof t&&isFinite(t)&&Math.floor(t)===t}),Number.EPSILON||(Number.EPSILON=2220446049250313e-31);const D=Math.sin,$=Math.cos,L=Math.acos,q=Math.asin,z=Math.tan,G=Math.atan2,W=Math.sqrt;function Y(t,e){return{a:t[0]*e[0]+t[2]*e[1],b:t[1]*e[0]+t[3]*e[1],c:t[0]*e[2]+t[2]*e[3],d:t[1]*e[2]+t[3]*e[3],tx:t[0]*e[4]+t[2]*e[5]+t[4],ty:t[1]*e[4]+t[3]*e[5]+t[5]}}function U(t,e,n){return t>=.5?n:e}function H(t,e,n){return 0===t||e===n?e:t*(n-e)+e}function J(t,e,n){const r=H(t,e,n);return r<=0?0:r}function Q(t,e,n){const r=H(t,e,n);return r<=0?0:r>=1?1:r}function X(t,e,n){return 0===t?e:1===t?n:{x:H(t,e.x,n.x),y:H(t,e.y,n.y)}}function Z(t,e,n){return 0===t?e:1===t?n:{x:J(t,e.x,n.x),y:J(t,e.y,n.y)}}function K(t,e,n){const r=function(t,e,n){return Math.round(H(t,e,n))}(t,e,n);return r<=0?0:r>=255?255:r}function tt(t,e,n){return 0===t?e:1===t?n:{r:K(t,e.r,n.r),g:K(t,e.g,n.g),b:K(t,e.b,n.b),a:H(t,null==e.a?1:e.a,null==n.a?1:n.a)}}function et(t,e,n){let r=e.length;if(r!==n.length)return U(t,e,n);let i=new Array(r);for(let s=0;s<r;s++)i[s]=H(t,e[s],n[s]);return i}function nt(t,e){const n=[];for(let r=0;r<t;r++)n.push(e);return n}function rt(t,e){if(--e<=0)return t;const n=(t=Object.assign([],t)).length;do{for(let e=0;e<n;e++)t.push(t[e])}while(--e>0);return t}class it{constructor(t){this.list=t,this.length=t.length}setAttribute(t,e){const n=this.list;for(let r=0;r<this.length;r++)n[r].setAttribute(t,e)}removeAttribute(t){const e=this.list;for(let n=0;n<this.length;n++)e[n].removeAttribute(t)}style(t,e){const n=this.list;for(let r=0;r<this.length;r++)n[r].style[t]=e}}const st=/-./g,ot=(t,e)=>e.toUpperCase();let ut;function lt(t){return"function"==typeof t?t:U}function at(t){return t?"function"==typeof t?t:Array.isArray(t)?function(t,e=T){if(!Array.isArray(t))return e;switch(t.length){case 1:return V(t[0])||e;case 2:return V(t[0],t[1])||e;case 4:return F(t[0],t[1],t[2],t[3])||e}return e}(t,null):function(t,e,n=T){switch(t){case"linear":return T;case"steps":return V(e.steps||1,e.jump||0)||n;case"bezier":case"cubic-bezier":return F(e.x1||0,e.y1||0,e.x2||0,e.y2||0)||n}return n}(t.type,t.value,null):null}function ct(t,e,n,r=!1){const i=e.length-1;if(t<=e[0].t)return r?[0,0,e[0].v]:e[0].v;if(t>=e[i].t)return r?[i,1,e[i].v]:e[i].v;let s,o=e[0],u=null;for(s=1;s<=i;s++){if(!(t>e[s].t)){u=e[s];break}o=e[s]}return null==u?r?[i,1,e[i].v]:e[i].v:o.t===u.t?r?[s,1,u.v]:u.v:(t=(t-o.t)/(u.t-o.t),o.e&&(t=o.e(t)),r?[s,t,n(t,o.v,u.v)]:n(t,o.v,u.v))}function ft(t,e,n=null){return t&&t.length?"function"!=typeof e?null:("function"!=typeof n&&(n=null),r=>{let i=ct(r,t,e);return null!=i&&n&&(i=n(i)),i}):null}function ht(t,e){return t.t-e.t}function dt(t,e,n,r,i){const s="@"===n[0],o="#"===n[0];let u=ut[n],l=U;var a;switch(s?(a=n.substr(1),n=a.replace(st,ot)):o&&(n=n.substr(1)),typeof u){case"function":if(l=u(r,i,ct,at,n,s,e,t),o)return l;break;case"string":l=ft(r,lt(u));break;case"object":if(l=ft(r,lt(u.i),u.f),l&&"function"==typeof u.u)return u.u(e,l,n,s,t)}return l?function(t,e,n,r=!1){if(r)return t instanceof it?r=>t.style(e,n(r)):r=>t.style[e]=n(r);if(Array.isArray(e)){const r=e.length;return i=>{const s=n(i);if(null==s)for(let n=0;n<r;n++)t[n].removeAttribute(e);else for(let n=0;n<r;n++)t[n].setAttribute(e,s)}}return r=>{const i=n(r);null==i?t.removeAttribute(e):t.setAttribute(e,i)}}(e,n,l,s):null}function gt(t,e,n,r){if(!r||"object"!=typeof r)return null;let i=null,s=null;return Array.isArray(r)?s=function(t){if(!t||!t.length)return null;for(let e=0;e<t.length;e++)t[e].e&&(t[e].e=at(t[e].e));return t.sort(ht)}(r):(s=r.keys,i=r.data||null),s?dt(t,e,n,s,i):null}function pt(t,e,n){if(!n)return null;const r=[];for(const i in n)if(n.hasOwnProperty(i)){const s=gt(t,e,i,n[i]);s&&r.push(s)}return r.length?r:null}function yt(t,e){if(!e.settings.duration||e.settings.duration<0)return null;const n=function(t,e){if(!e)return null;let n=[];if(Array.isArray(e)){const r=e.length;for(let i=0;i<r;i++){const r=e[i];if(2!==r.length)continue;let s=null;if("string"==typeof r[0])s=t.getElementById(r[0]);else if(Array.isArray(r[0])){s=[];for(let e=0;e<r[0].length;e++)if("string"==typeof r[0][e]){const n=t.getElementById(r[0][e]);n&&s.push(n)}s=s.length?1===s.length?s[0]:new it(s):null}if(!s)continue;const o=pt(t,s,r[1]);o&&(n=n.concat(o))}}else for(const r in e){if(!e.hasOwnProperty(r))continue;const i=t.getElementById(r);if(!i)continue;const s=pt(t,i,e[r]);s&&(n=n.concat(s))}return n.length?n:null}(t,e.elements);return n?function(t,e){const n=e.duration,r=t.length;let i=null;return(s,o)=>{const u=e.iterations||1/0,l=(e.alternate&&u%2==0)^e.direction>0?n:0;let a=s%n,c=1+(s-a)/n;o*=e.direction,e.alternate&&c%2==0&&(o=-o);let f=!1;if(c>u)a=l,f=!0,-1===e.fill&&(a=e.direction>0?0:n);else if(o<0&&(a=n-a),a===i)return!1;i=a;for(let e=0;e<r;e++)t[e](a);return f}}(n,e.settings):null}function mt(t,e=document,n=0){const r=function(t,e){const n=e.querySelectorAll("svg");for(let e=0;e<n.length;e++)if(n[e].id===t.root&&!n[e].svgatorAnimation)return n[e].svgatorAnimation=!0,n[e];return null}(t,e);if(r)return r;if(n>=20)return null;const i=function(t){const e=t=>t.shadowRoot;return document?Array.from(t.querySelectorAll(":not("+["a","area","audio","br","canvas","circle","datalist","embed","g","head","hr","iframe","img","input","link","object","path","polygon","rect","script","source","style","svg","title","track","video"].join()+")")).filter(e).map(e):[]}(e);for(let e=0;e<i.length;e++){const r=mt(t,i[e],n+1);if(r)return r}return null}function vt(t,e=null,n=Number,r="undefined"!=typeof BigInt&&BigInt){const i="0x"+(t.replace(/[^0-9a-fA-F]+/g,"")||27);return e&&r&&n.isSafeInteger&&!n.isSafeInteger(+i)?n(r(i))%e+e:+i}function bt(t,e=27){return!t||t%e?t%e:[0,1].includes(e)?e:bt(t/e,e)}function wt(t,e,n){if(!t||!t.length)return;const r=vt(n),i=bt(r)+5;let s=function(t,e,n){let r="";for(;t&&n&&e<=t.length;)r+=t.substring(0,e),t=t.substring(e+1),e=n;return r+t}(t,bt(r,5),i);return s=s.replace(/\x7c$/g,"==").replace(/\x2f$/g,"="),s=atob(s),s=s.replace(/[\x41-\x5A]/g,""),s=function(t,e,n){const r=+("0x"+t.substring(0,4));t=t.substring(4);const i=vt(e,r)%r+n%27,s=[];for(let e=0;e<t.length;e+=2){if("|"===t[e]){const n=+("0x"+t.substring(e+1,e+1+4))-i;e+=3,s.push(n);continue}const n=+("0x"+t[e]+t[e+1])-i;s.push(n)}return String.fromCharCode(...s)}(s,e,r),s=JSON.parse(s),s}const xt=[{key:"alternate",def:!1},{key:"fill",def:1},{key:"iterations",def:0},{key:"direction",def:1},{key:"speed",def:1},{key:"fps",def:100}];function At(t){return n(t)+""}function _t(t,e=" "){return t&&t.length?t.map(At).join(e):""}function kt(t){return At(t.x)+","+At(t.y)}function St(t){return t?null==t.a||t.a>=1?function(t){if(!t)return"transparent";const e=t=>parseInt(t).toString(16).padStart(2,"0");return function(t){const e=[];let n="#"===t[0]?e.push("#"):0;for(;n<t.length;n+=2){if(t[n]!==t[n+1])return t;e.push(t[n])}return e.join("")}("#"+e(t.r)+e(t.g)+e(t.b)+(null==t.a||t.a>=1?"":e(255*t.a)))}(t):"rgba("+t.r+","+t.g+","+t.b+","+t.a+")":"transparent"}function Et(t){return t?"url(#"+t+")":"none"}!function(){for(var t=0,e=["ms","moz","webkit","o"],n=0;n<e.length&&!window.requestAnimationFrame;++n)window.requestAnimationFrame=window[e[n]+"RequestAnimationFrame"],window.cancelAnimationFrame=window[e[n]+"CancelAnimationFrame"]||window[e[n]+"CancelRequestAnimationFrame"];window.requestAnimationFrame||(window.requestAnimationFrame=function(e){var n=Date.now(),r=Math.max(0,16-(n-t)),i=window.setTimeout((function(){e(n+r)}),r);return t=n+r,i},window.cancelAnimationFrame=window.clearTimeout)}();var Ot={f:null,i:Z,u:(t,e)=>n=>{const r=e(n);t.setAttribute("rx",At(r.x)),t.setAttribute("ry",At(r.y))}},It={f:null,i:function(t,e,n){return 0===t?e:1===t?n:{width:J(t,e.width,n.width),height:J(t,e.height,n.height)}},u:(t,e)=>n=>{const r=e(n);t.setAttribute("width",At(r.width)),t.setAttribute("height",At(r.height))}};Object.freeze({M:2,L:2,Z:0,H:1,V:1,C:6,Q:4,T:2,S:4,A:7});let Mt={},jt=null;function Bt(t){let e=function(){if(jt)return jt;if("object"!=typeof document||!document.createElementNS)return{};let t=document.createElementNS("http://www.w3.org/2000/svg","svg");return t&&t.style?(t.style.position="absolute",t.style.opacity="0.01",t.style.zIndex="-9999",t.style.left="-9999px",t.style.width="1px",t.style.height="1px",jt={svg:t},jt):{}}().svg;if(!e)return function(t){return null};let n=document.createElementNS(e.namespaceURI,"path");n.setAttributeNS(null,"d",t),n.setAttributeNS(null,"fill","none"),n.setAttributeNS(null,"stroke","none"),e.appendChild(n);let r=n.getTotalLength();return function(t){let e=n.getPointAtLength(r*t);return{x:e.x,y:e.y}}}function Nt(t,e,n,r,i=1){let s=function(t){return Mt[t]?Mt[t]:Mt[t]=Bt(t)}(function(t,e,n,r){if(!t||!r)return!1;let i=["M",t.x,t.y];if(e&&n&&(i.push("C"),i.push(e.x),i.push(e.y),i.push(n.x),i.push(n.y)),e?!n:n){let t=e||n;i.push("Q"),i.push(t.x),i.push(t.y)}return e||n||i.push("L"),i.push(r.x),i.push(r.y),i.join(" ")}(t,e,n,r));try{return s(i)}catch(t){return null}}function Tt(t,e,n){return t+(e-t)*n}function Pt(t,e,n,r=!1){const i={x:Tt(t.x,e.x,n),y:Tt(t.y,e.y,n)};return r&&(i.a=function(t,e){return Math.atan2(e.y-t.y,e.x-t.x)}(t,e)),i}function Ft(t,e,n,r){const i=1-r;return i*i*t+2*i*r*e+r*r*n}function Rt(t,e,n,r){return 2*(1-r)*(e-t)+2*r*(n-e)}function Ct(t,e,n,r,i=!1){let s=Nt(t,e,null,n,r);return s||(s={x:Ft(t.x,e.x,n.x,r),y:Ft(t.y,e.y,n.y,r)}),i&&(s.a=function(t,e,n,r){return Math.atan2(Rt(t.y,e.y,n.y,r),Rt(t.x,e.x,n.x,r))}(t,e,n,r)),s}function Vt(t,e,n,r,i){const s=i*i;return i*s*(r-t+3*(e-n))+3*s*(t+n-2*e)+3*i*(e-t)+t}function Dt(t,e,n,r,i){const s=1-i;return 3*(s*s*(e-t)+2*s*i*(n-e)+i*i*(r-n))}function $t(t,e,n,r,i,s=!1){let o=Nt(t,e,n,r,i);return o||(o={x:Vt(t.x,e.x,n.x,r.x,i),y:Vt(t.y,e.y,n.y,r.y,i)}),s&&(o.a=function(t,e,n,r,i){return Math.atan2(Dt(t.y,e.y,n.y,r.y,i),Dt(t.x,e.x,n.x,r.x,i))}(t,e,n,r,i)),o}function Lt(t,e,n,r=!1){if(zt(e)){if(Gt(n))return Ct(e,n.start,n,t,r)}else if(zt(n)){if(Wt(e))return Ct(e,e.end,n,t,r)}else{if(Wt(e))return Gt(n)?$t(e,e.end,n.start,n,t,r):Ct(e,e.end,n,t,r);if(Gt(n))return Ct(e,n.start,n,t,r)}return Pt(e,n,t,r)}function qt(t,e,n){const r=Lt(t,e,n,!0);return r.a=o(function(t,e=!1){return e?t+Math.PI:t}(r.a)),r}function zt(t){return!t.type||"corner"===t.type}function Gt(t){return null!=t.start&&!zt(t)}function Wt(t){return null!=t.end&&!zt(t)}const Yt=new class{constructor(t=1,e=0,n=0,r=1,i=0,s=0){this.m=[t,e,n,r,i,s],this.i=null,this.w=null,this.s=null}get determinant(){const t=this.m;return t[0]*t[3]-t[1]*t[2]}get isIdentity(){if(null===this.i){const t=this.m;this.i=1===t[0]&&0===t[1]&&0===t[2]&&1===t[3]&&0===t[4]&&0===t[5]}return this.i}point(t,e){const n=this.m;return{x:n[0]*t+n[2]*e+n[4],y:n[1]*t+n[3]*e+n[5]}}translateSelf(t=0,e=0){if(!t&&!e)return this;const n=this.m;return n[4]+=n[0]*t+n[2]*e,n[5]+=n[1]*t+n[3]*e,this.w=this.s=this.i=null,this}rotateSelf(t=0){if(t%=360){t=s(t);const e=D(t),n=$(t),r=this.m,i=r[0],o=r[1];r[0]=i*n+r[2]*e,r[1]=o*n+r[3]*e,r[2]=r[2]*n-i*e,r[3]=r[3]*n-o*e,this.w=this.s=this.i=null}return this}scaleSelf(t=1,e=1){if(1!==t||1!==e){const n=this.m;n[0]*=t,n[1]*=t,n[2]*=e,n[3]*=e,this.w=this.s=this.i=null}return this}skewSelf(t,e){if(e%=360,(t%=360)||e){const n=this.m,r=n[0],i=n[1],o=n[2],u=n[3];t&&(t=z(s(t)),n[2]+=r*t,n[3]+=i*t),e&&(e=z(s(e)),n[0]+=o*e,n[1]+=u*e),this.w=this.s=this.i=null}return this}resetSelf(t=1,e=0,n=0,r=1,i=0,s=0){const o=this.m;return o[0]=t,o[1]=e,o[2]=n,o[3]=r,o[4]=i,o[5]=s,this.w=this.s=this.i=null,this}recomposeSelf(t=null,e=null,n=null,r=null,i=null){return this.isIdentity||this.resetSelf(),t&&(t.x||t.y)&&this.translateSelf(t.x,t.y),e&&this.rotateSelf(e),n&&(n.x&&this.skewSelf(n.x,0),n.y&&this.skewSelf(0,n.y)),!r||1===r.x&&1===r.y||this.scaleSelf(r.x,r.y),i&&(i.x||i.y)&&this.translateSelf(i.x,i.y),this}decompose(t=0,e=0){const r=this.m,i=r[0]*r[0]+r[1]*r[1],s=[[r[0],r[1]],[r[2],r[3]]];let u=W(i);if(0===u)return{origin:{x:n(r[4]),y:n(r[5])},translate:{x:n(t),y:n(e)},scale:{x:0,y:0},skew:{x:0,y:0},rotate:0};s[0][0]/=u,s[0][1]/=u;const l=r[0]*r[3]-r[1]*r[2]<0;l&&(u=-u);let a=s[0][0]*s[1][0]+s[0][1]*s[1][1];s[1][0]-=s[0][0]*a,s[1][1]-=s[0][1]*a;let c,f=W(s[1][0]*s[1][0]+s[1][1]*s[1][1]);return 0===f?{origin:{x:n(r[4]),y:n(r[5])},translate:{x:n(t),y:n(e)},scale:{x:n(u),y:0},skew:{x:0,y:0},rotate:0}:(s[1][0]/=f,s[1][1]/=f,a/=f,s[1][1]<0?(c=o(L(s[1][1])),s[0][1]<0&&(c=360-c)):c=o(q(s[0][1])),l&&(c=-c),a=o(G(a,W(s[0][0]*s[0][0]+s[0][1]*s[0][1]))),l&&(a=-a),{origin:{x:n(r[4]),y:n(r[5])},translate:{x:n(t),y:n(e)},scale:{x:n(u),y:n(f)},skew:{x:n(a),y:0},rotate:n(c)})}multiply(t){return this.clone().multiplySelf(t)}preMultiply(t){return t.multiply(this)}multiplySelf(t){const{a:e,b:n,c:r,d:i,tx:s,ty:o}=Y(this.m,t.m);return this.resetSelf(e,n,r,i,s,o),this}preMultiplySelf(t){const{a:e,b:n,c:r,d:i,tx:s,ty:o}=Y(t.m,this.m);return this.resetSelf(e,n,r,i,s,o),this}clone(){const t=this.m;return new this.constructor(t[0],t[1],t[2],t[3],t[4],t[5])}static create(t){return t?Array.isArray(t)?new this(...t):t instanceof this?t.clone():(new this).recomposeSelf(t.origin,t.rotate,t.skew,t.scale,t.translate):new this}toString(t=" ",e=!1){if(null===this.s){let r=this.m.map((t=>n(t)));e||1!==r[0]||0!==r[1]||0!==r[2]||1!==r[3]?this.s="matrix("+r.join(t)+")":this.s="translate("+r[4]+t+r[5]+")"}return this.s}};var Ut={f:function(t){return t?t.join(" "):""},i:function(t,e,n){if(0===t)return e;if(1===t)return n;let r=e.length;if(r!==n.length)return U(t,e,n);let i,s=new Array(r);for(let o=0;o<r;o++){if(i=typeof e[o],i!==typeof n[o])return U(t,e,n);if("number"===i)s[o]=H(t,e[o],n[o]);else{if(e[o]!==n[o])return U(t,e,n);s[o]=e[o]}}return s}},Ht={f:null,i:et,u:(t,e)=>n=>{const r=e(n);t.setAttribute("x1",At(r[0])),t.setAttribute("y1",At(r[1])),t.setAttribute("x2",At(r[2])),t.setAttribute("y2",At(r[3]))}},Jt={f:At,i:H},Qt={f:At,i:Q},Xt={f:function(t,e=" "){return t&&t.length>0&&(t=t.map((t=>n(t,4)))),_t(t,e)},i:function(t,e,r){let i=e.length,s=r.length;if(i!==s)if(0===i)i=s,e=nt(i,0);else if(0===s)s=i,r=nt(i,0);else{const t=function(t,e){const n=t*e/function(t,e){let n;for(;e;)n=e,e=t%e,t=n;return t||1}(t,e);return n<0?-n:n}(i,s);e=rt(e,Math.floor(t/i)),r=rt(r,Math.floor(t/s)),i=s=t}let o=[];for(let s=0;s<i;s++)o.push(n(J(t,e[s],r[s])));return o}};function Zt(t,e,r){return t.map((t=>function(t,e,r){let i=t.v;if(!i||"g"!==i.t||i.s||!i.v||!i.r)return t;const s=r.getElementById(i.r),o=s&&s.querySelectorAll("stop")||[];return i.s=i.v.map(((t,e)=>{let r=o[e]&&o[e].getAttribute("offset");return r=n(parseInt(r)/100),{c:t,o:r}})),delete i.v,t}(t,0,r)))}const Kt={gt:"gradientTransform",c:{x:"cx",y:"cy"},rd:"r",f:{x:"x1",y:"y1"},to:{x:"x2",y:"y2"}};function te(t,e,n,r,i,s,o,u){return Zt(t,0,u),e=function(t,e,n){let r,i,s;const o=t.length-1,u={};for(let l=0;l<=o;l++)r=t[l],r.e&&(r.e=e(r.e)),r.v&&(i=r.v,"g"===i.t&&i.r&&(s=n.getElementById(i.r),s&&(u[i.r]={e:s,s:s.querySelectorAll("stop")})));return u}(t,r,u),r=>{const i=n(r,t,ee);if(!i)return"none";if("c"===i.t)return St(i.v);if("g"===i.t){if(!e[i.r])return Et(i.r);const t=e[i.r];return function(t,e){let n=t.s;for(let r=n.length;r<e.length;r++){const e=n[n.length-1].cloneNode();e.id=ie(e.id),t.e.appendChild(e),n=t.s=t.e.querySelectorAll("stop")}for(let t=0,r=n.length,i=e.length-1;t<r;t++)n[t].setAttribute("stop-color",St(e[Math.min(t,i)].c)),n[t].setAttribute("offset",e[Math.min(t,i)].o)}(t,i.s),Object.keys(Kt).forEach((e=>{if(void 0===i[e])return;if("object"==typeof Kt[e])return void Object.keys(Kt[e]).forEach((n=>{if(void 0===i[e][n])return;const r=i[e][n],s=Kt[e][n];t.e.setAttribute(s,r)}));const n="gt"===e?(r=i[e],Array.isArray(r)?"matrix("+r.join(" ")+")":""):i[e];var r;const s=Kt[e];t.e.setAttribute(s,n)})),Et(i.r)}return"none"}}function ee(t,e,n){if(0===t)return e;if(1===t)return n;if(e&&n){const r=e.t;if(r===n.t)switch(e.t){case"c":return{t:r,v:tt(t,e.v,n.v)};case"g":if(e.r===n.r){const i={t:r,s:ne(t,e.s,n.s),r:e.r};return e.gt&&n.gt&&(i.gt=et(t,e.gt,n.gt)),e.c?(i.c=X(t,e.c,n.c),i.rd=J(t,e.rd,n.rd)):e.f&&(i.f=X(t,e.f,n.f),i.to=X(t,e.to,n.to)),i}}if("c"===e.t&&"g"===n.t||"c"===n.t&&"g"===e.t){const r="c"===e.t?e:n,i="g"===e.t?{...e}:{...n},s=i.s.map((t=>({c:r.v,o:t.o})));return i.s="c"===e.t?ne(t,s,i.s):ne(t,i.s,s),i}}return U(t,e,n)}function ne(t,e,n){if(e.length===n.length)return e.map(((e,r)=>re(t,e,n[r])));const r=Math.max(e.length,n.length),i=[];for(let s=0;s<r;s++){const r=re(t,e[Math.min(s,e.length-1)],n[Math.min(s,n.length-1)]);i.push(r)}return i}function re(t,e,n){return{o:Q(t,e.o,n.o||0),c:tt(t,e.c,n.c||{})}}function ie(t){return t.replace(/-fill-([0-9]+)$/,((t,e)=>"-fill-"+(+e+1)))}function se(t,e,n){return 0===t?e:1===t?n:{blur:Z(t,e.blur,n.blur),offset:X(t,e.offset,n.offset),color:tt(t,e.color,n.color)}}const oe={blur:Z,brightness:J,contrast:J,"drop-shadow":se,"inner-shadow":se,grayscale:J,"hue-rotate":H,invert:J,opacity:J,saturate:J,sepia:J};function ue(t,e,n){if(0===t)return e;if(1===t)return n;const r=e.length;if(r!==n.length)return U(t,e,n);const i=[];let s;for(let o=0;o<r;o++){if(e[o].type!==n[o].type)return e;if(s=oe[e[o].type],!s)return U(t,e,n);i.push({type:e.type,value:s(t,e[o].value,n[o].value)})}return i}const le={blur:t=>t?e=>{t.setAttribute("stdDeviation",kt(e))}:null,brightness:(t,e,n)=>(t=ce(n,e))?e=>{e=At(e),t.map((t=>t.setAttribute("slope",e)))}:null,contrast:(t,e,n)=>(t=ce(n,e))?e=>{const n=At((1-e)/2);e=At(e),t.map((t=>{t.setAttribute("slope",e),t.setAttribute("intercept",n)}))}:null,"drop-shadow"(t,e,n){const r=n.getElementById(e+"-blur");if(!r)return null;const i=n.getElementById(e+"-offset");if(!i)return null;const s=n.getElementById(e+"-flood");return s?t=>{r.setAttribute("stdDeviation",kt(t.blur)),i.setAttribute("dx",At(t.offset.x)),i.setAttribute("dy",At(t.offset.y)),s.setAttribute("flood-color",St(t.color))}:null},"inner-shadow"(t,e,n){const r=n.getElementById(e+"-blur");if(!r)return null;const i=n.getElementById(e+"-offset");if(!i)return null;const s=n.getElementById(e+"-color-matrix");return s?t=>{r.setAttribute("stdDeviation",kt(t.blur)),i.setAttribute("dx",At(t.offset.x)),i.setAttribute("dy",At(t.offset.y));const e=[0,0,0,0,t.color.r/255,0,0,0,0,t.color.g/255,0,0,0,0,t.color.b/255,0,0,0,t.color.a,0];s.setAttribute("values",_t(e))}:null},grayscale:t=>t?e=>{t.setAttribute("values",_t(function(t){return[.2126+.7874*(t=1-t),.7152-.7152*t,.0722-.0722*t,0,0,.2126-.2126*t,.7152+.2848*t,.0722-.0722*t,0,0,.2126-.2126*t,.7152-.7152*t,.0722+.9278*t,0,0,0,0,0,1,0]}(e)))}:null,"hue-rotate":t=>t?e=>t.setAttribute("values",At(e)):null,invert:(t,e,n)=>(t=ce(n,e))?e=>{e=At(e)+" "+At(1-e),t.map((t=>t.setAttribute("tableValues",e)))}:null,opacity:(t,e,n)=>(t=n.getElementById(e+"-A"))?e=>t.setAttribute("tableValues","0 "+At(e)):null,saturate:t=>t?e=>t.setAttribute("values",At(e)):null,sepia:t=>t?e=>t.setAttribute("values",_t(function(t){return[.393+.607*(t=1-t),.769-.769*t,.189-.189*t,0,0,.349-.349*t,.686+.314*t,.168-.168*t,0,0,.272-.272*t,.534-.534*t,.131+.869*t,0,0,0,0,0,1,0]}(e))):null};const ae=["R","G","B"];function ce(t,e){const n=ae.map((n=>t.getElementById(e+"-"+n)||null));return-1!==n.indexOf(null)?null:n}var fe={fill:te,"fill-opacity":Qt,stroke:te,"stroke-opacity":Qt,"stroke-width":Jt,"stroke-dashoffset":{f:At,i:H},"stroke-dasharray":Xt,opacity:Qt,transform:function(t,e,n,r){if(!(t=function(t,e){if(!t||"object"!=typeof t)return null;let n=!1;for(const r in t)t.hasOwnProperty(r)&&(t[r]&&t[r].length?(t[r].forEach((t=>{t.e&&(t.e=e(t.e))})),n=!0):delete t[r]);return n?t:null}(t,r)))return null;const i=(r,i,s,o=null)=>t[r]?n(i,t[r],s):e&&e[r]?e[r]:o;return e&&e.a&&t.o?e=>{const r=n(e,t.o,qt);return Yt.recomposeSelf(r,i("r",e,H,0)+r.a,i("k",e,X),i("s",e,X),i("t",e,X)).toString()}:t=>Yt.recomposeSelf(i("o",t,Lt,null),i("r",t,H,0),i("k",t,X),i("s",t,X),i("t",t,X)).toString()},"#filter":function(t,e,n,r,i,s,o,u){if(!e.items||!t||!t.length)return null;const l=function(t,e){const n=(t=t.map((t=>t&&le[t[0]]?(e.getElementById(t[1]),le[t[0]](e.getElementById(t[1]),t[1],e)):null))).length;return e=>{for(let r=0;r<n;r++)t[r]&&t[r](e[r].value)}}(e.items,u);return l?(t=function(t,e){return t.map((t=>(t.e=e(t.e),t)))}(t,r),e=>{l(n(e,t,ue))}):null},"#line":Ht,points:{f:_t,i:et},d:Ut,r:Jt,"#size":It,"#radius":Ot,_(t,e){if(Array.isArray(t))for(let n=0;n<t.length;n++)this[t[n]]=e;else this[t]=e}};const he={currentTime:"offset",duration:"duration",hasEnded:function(){return this.reachedToEnd()},isAlternate:"alternate",isPlaying:"_running",isRollingBack:"_rollingBack",state:function(t,e){return e.isPlaying?e.isRollingBack?"rollback":"playing":e.hasEnded?"ended":"paused"},totalTime:"maxFiniteDuration",iterations:"iterations",direction:"direction",fill:"fill",isReversed:function(t,e){return-1===e.direction},isBackwards:function(t,e){return-1===e.fill},isInfinite:function(t,e){return 0===e.iterations},speed:"speed",fps:"fps"},de={destruct:"destruct",pause:"pause",play:function(t,e){return ge(t,e.hasEnded?"restart":"play",e)},restart:"restart",reverse:function(t,e){return ge(t,"reverse",e,[!0])},seek:"seek",seekBy:"seekBy",seekTo:"seekTo",stop:"stop",toggle:"toggle",togglePlay:"toggle",set:"set"};function ge(t,e,n,r=[]){return function(){const i=[...arguments];return i.unshift(...r),t[e].call(t,...i),n}}class pe{constructor(t){const e={},n=["on","off"],r={get:function(t,r,i){return he[r]?"function"==typeof he[r]?he[r].call(t,t,i):t[he[r]]:de[r]?"function"==typeof de[r]?de[r].call(t,t,i):ge(t,de[r],i):-1!==n.indexOf(r)?e[r]:"ready"===r?t=>(t&&t.call(i,i),i):void 0},set:function(t,r,i){return-1!==n.indexOf(r)&&(e[r]=i)},ownKeys:function(t){return Object.keys(he)},has:function(t,e){return void 0!==he[e]}};if("function"==typeof Proxy)return new Proxy(t,r);const i=Object.keys(he).concat(Object.keys(de)).concat(n),s={};return i.forEach((e=>{const i={enumerable:!1,configurable:!1,get:()=>r.get(t,e,s)};-1!==n.indexOf(e)&&(i.set=n=>r.set(t,e,n)),Object.defineProperty(s,e,i)})),s}}function ye(t){t||(t=this);let e={};this.on=function(t,n,r=!1){return"function"==typeof n&&(t.split(/[, ]+/g).forEach((t=>(e[t]=e[t]||[],r?e[t].unshift(n):e[t].push(n)))),!0)},this.off=function(t,n){for(let r in e)if(e.hasOwnProperty(r)&&r.substr(0,t.length)===t)if(n)for(let t=0;t<e[r].length;t++)e[r][t]===n&&(e[r][t]=null);else e[r]=null},this.trigger=function(){let n,[r,...i]=[...arguments];t:for(let s in e)if(e.hasOwnProperty(s)&&e[s]&&(s===r||s.substr(0,r.length+1)===r+"."))for(let r=0;r<(e[s]||[]).length;r++)if(e[s][r]&&(n=e[s][r].apply(t,i),!1===n))break t;return n}}let me=function(t,e,n=n){let r=!1,i=null;return function(s){r&&clearTimeout(r),r=setTimeout((()=>function(){let s=0,o=n.innerHeight,u=0,l=n.innerWidth,a=t.parentNode;for(;a instanceof Element;){let t=n.getComputedStyle(a);if("visible"!==t.overflowY||"visible"!==t.overflowX){let e=a.getBoundingClientRect();"visible"!==t.overflowY&&(s=Math.max(s,e.top),o=Math.min(o,e.bottom)),"visible"!==t.overflowX&&(u=Math.max(u,e.left),l=Math.min(l,e.right))}if(a===a.parentNode)break;a=a.parentNode}r=!1;let c=t.getBoundingClientRect(),f=Math.min(c.height,Math.max(0,s-c.top)),h=Math.min(c.height,Math.max(0,c.bottom-o)),d=Math.min(c.width,Math.max(0,u-c.left)),g=Math.min(c.width,Math.max(0,c.right-l)),p=(c.height-f-h)/c.height,y=(c.width-d-g)/c.width,m=Math.round(p*y*100);null!==i&&i===m||(i=m,e(m))}()),100)}};class ve{constructor(t,e,n){const r=function(t){var e,n;const r=t&&1===(null===(e=t.ownerDocument)||void 0===e||null===(n=e.childNodes)||void 0===n?void 0:n.length)&&window.parent!==window,i={el:t,window:window};if(!r)return i;let s;try{s=window.parent.document}catch(t){return i}return i.window=window.parent,i.el=Array.from(s.querySelectorAll("iframe,object")).filter((t=>t.contentWindow===window))[0]||i.el,i}(t);e=Math.max(1,e||1),e=Math.min(e,100),this.el=r.el,this._handlers=[],this.onThresholdChange=n&&n.call?n:()=>{},this.thresholdPercent=e||1,this.currentVisibility=null,this.visibilityCalculator=me(this.el,this.onVisibilityUpdate.bind(this),r.window),this.bindScrollWatchers(),this.visibilityCalculator()}bindScrollWatchers(){let t=this.el.parentNode;for(;t&&(this._handlers.push({element:t,event:"scroll",handler:this.visibilityCalculator}),t.addEventListener("scroll",this.visibilityCalculator),t!==t.parentNode&&t!==document);)t=t.parentNode}onVisibilityUpdate(t){let e=this.currentVisibility>=this.thresholdPercent,n=t>=this.thresholdPercent;if(null===this.currentVisibility||e!==n)return this.currentVisibility=t,void this.onThresholdChange(n);this.currentVisibility=t}destruct(){this._handlers.forEach((t=>{t.element.removeEventListener(t.event,t.handler)}))}}class be{static adjustLink(t){var e,n;const r=t&&1===(null===(e=t.ownerDocument)||void 0===e||null===(n=e.childNodes)||void 0===n?void 0:n.length)&&window.parent!==window,i=null==t?void 0:t.firstElementChild;r&&i&&"a"===i.tagName&&!i.getAttribute("target")&&i.setAttributeNS(null,"target","_parent")}static autoPlay(t,e,n,r=[]){if("click"===n.start){const i=()=>{switch(n.click){case"freeze":return!t._running&&t.reachedToEnd()?t.restart():t.toggle();case"restart":return t.offset>0?t.restart():t.play();case"reverse":return t._running?t.reverse():t.reachedToEnd()?1===t.fill?t.reverse(!0):t.restart():t.play();case"none":default:if(t._running)return;return t.reachedToEnd()?t.restart():t.play()}};return r.push({element:e,event:"click",handler:i}),void e.addEventListener("click",i)}if("hover"===n.start){const i=()=>t.reachedToEnd()?t.restart():t._rollingBack?t.reverse():t.play();r.push({element:e,event:"mouseenter",handler:i}),e.addEventListener("mouseenter",i);const s=()=>{switch(n.hover){case"freeze":return t.pause();case"reset":return t.stop();case"reverse":if(t.reverse(),t._running)return;return t.play();case"none":default:return}};return r.push({element:e,event:"mouseleave",handler:s}),void e.addEventListener("mouseleave",s)}if("scroll"!==n.start)"programmatic"!==n.start&&t.play();else{const i=new ve(e,n.scroll||25,(function(e){e?t.reachedToEnd()?t.restart():t.play():t.pause()}));r.push({callback:()=>i.destruct()})}}}const we=!0,xe=["iterations","speed","fps","direction","fill","alternate"];class Ae extends class{_svg;_rootId;constructor(t){this._id=0,this._running=!1,this._rollingBack=!1,this._animations=t.animations,this._settings=t.animationSettings,t.version<"2022-05-02"&&delete this._settings.speed,xt.forEach((t=>{this._settings[t.key]=this._settings[t.key]||t.def})),this.duration=t.animationSettings.duration,this.offset=t.animationSettings.offset||0,this.rollbackStartOffset=0,this._rootId=t.root,this._svg=t.svg,this._originalAnimations=t.originalAnimations,this._fTC=new N(this)}get svg(){return this._svg}get rootId(){return this._rootId}get alternate(){return this._settings.alternate}get fill(){return this._settings.fill}get iterations(){return this._settings.iterations}get direction(){return this._settings.direction}get speed(){return this._settings.speed}get fps(){return this._settings.fps}get wD(){return this._settings.w}get originalAnimations(){return this._originalAnimations}get maxFiniteDuration(){return this.iterations>0?this.iterations*this.duration:this.duration}static build(t,e){if(delete t.animationSettings,t.options=wt(t.options,t.root,"7c8cb2ed"),t.animations.map((e=>{e.settings=wt(e.s,t.root,"7c8cb2ed"),delete e.s,t.animationSettings||(t.animationSettings=e.settings)})),Object.assign(t,{originalAnimations:t.animations},function(t,e){if(ut=e,!t||!t.root||!Array.isArray(t.animations))return null;const n=mt(t);if(!n)return null;const r=t.animations.map((t=>yt(n,t))).filter((t=>!!t));return r.length?{svg:n,animations:r}:null}(t,e)),!t)return null;const n=t.options||{},r=new this(t);return{el:t.svg,options:n,player:r}}static push(t){return this.build(t)}static init(){const t=window.__SVGATOR_PLAYER__&&window.__SVGATOR_PLAYER__["7c8cb2ed"];Array.isArray(t)&&t.splice(0).forEach((t=>this.build(t)))}_apply(t,e={}){const n=this._animations,r=n.length;let i=0;for(let s=0;s<r;s++)e[s]?i++:(e[s]=n[s](t,1),e[s]&&i++);return i}_rollback(t){let e=1/0,n=null;this.rollbackStartOffset=t,this._rollingBack=!0,this._running=!0;const r=i=>{if(!this._rollingBack)return;null==n&&(n=i);let s=Math.round(t-(i-n)*this.speed);if(s>this.duration&&e!==1/0){const t=!!this.alternate&&s/this.duration%2>1;let e=s%this.duration;e+=t?this.duration:0,s=e||this.duration}const o=(this.fps?1e3/this.fps:0)*this.speed,u=Math.max(0,s);u<=e-o&&(this.offset=u,e=u,this._apply(u));const l=this.iterations>0&&-1===this.fill&&s>=this.maxFiniteDuration;(s<=0||this.offset<s||l)&&this.stop(),this._id=window.requestAnimationFrame(r)};this._id=window.requestAnimationFrame(r)}_start(t=0){let e,n=-1/0;const r={};this._running=!0;const i=s=>{e??=s;const o=Math.round((s-e)*this.speed+t),u=(this.fps?1e3/this.fps:0)*this.speed;o>=n+u&&!this._rollingBack&&this._fTC.cF(s,(()=>{this.offset=o,n=o;if(this._apply(o,r)===this._animations.length)return this.pause(!0),!0}))||(this._id=window.requestAnimationFrame(i))};this._id=window.requestAnimationFrame(i)}_pause(){this._id&&window.cancelAnimationFrame(this._id),this._running=!1}play(){if(!this._running)return this._rollingBack?this._rollback(this.offset):this._start(this.offset)}stop(){this._pause(),this.offset=0,this.rollbackStartOffset=0,this._rollingBack=!1,this._apply(0)}reachedToEnd(){return this.iterations>0&&this.offset>=this.iterations*this.duration}restart(t=!1){this.stop(t),this.play(t)}pause(){this._pause()}toggle(){return this._running?this.pause():this.reachedToEnd()?this.restart():this.play()}trigger(t,e){}_adjustOffset(t=!1){const e=this.alternate?2*this.duration:this.duration;if(t){if(!this._rollingBack&&0===this.offset)return void(this.offset=e);this._rollingBack&&(this.offset,this.maxFiniteDuration)}!this._rollingBack||this.rollbackStartOffset<=this.duration?0!==this.iterations&&(this.offset=Math.min(this.offset,this.maxFiniteDuration)):(this.offset=this.rollbackStartOffset-(this.rollbackStartOffset-this.offset)%e,this.rollbackStartOffset=0)}reverse(t=!1){if(!this._running)return this._adjustOffset(t),this._rollingBack=!this._rollingBack,t&&this.play(!1),void this.trigger("reverse",this.offset);this.pause(!1,!1),this._adjustOffset(),this._rollingBack=!this._rollingBack,this.play(!1),this.trigger("reverse",this.offset)}}{constructor(t){super(t),this._handlers=[]}static build(t){let e=super.build(t,fe);if(!e)return null;let{el:n,options:r,player:i}=e;const s=new pe(i),o=new ye(s);s.on=o.on,s.off=o.off,i.trigger=o.trigger;const u=n.svgatorPlayer&&n.svgatorPlayer.ready&&n.svgatorPlayer.ready.call&&n.svgatorPlayer.ready.call();n.svgatorPlayer=s,be.adjustLink(n),be.autoPlay(i,n,r,i._handlers),function(t,e,n){let r;"function"==typeof Event?r=new Event("ready"):(r=document.createEvent("Event"),r.initEvent("ready",!0,!0));if(t.dispatchEvent(r),!n||!n.length)return;n.forEach((t=>e.ready(t)))}(n,n.svgatorPlayer,u)}play(t=true){const e=super.play();return t===we&&this.trigger("play",this.offset),e}pause(t=!1,e=true){const n=super.pause();return e===we&&this.trigger(t?"end":"pause",this.offset),n}restart(){const t=super.restart(!1);return this.trigger("restart",this.offset),t}stop(t=true){const e=super.stop();return t===we&&this.trigger("stop",this.offset),e}_apply(t,e={},n=true){const r=super._apply(t);if(n===we){const e=()=>this.trigger("keyframe",t);window.requestAnimationFrame(e)}return r}seekTo(t){const e=this._running;var n,r,i;e&&this.pause(!1,!1),this.offset=this.iterations>0?(n=t,r=0,i=this.maxFiniteDuration,n<r?r:n>i?i:n):Math.max(t,0),this._apply(this.offset),e&&this.play(!1)}seek(t){return this.seekTo(Math.round(t/100*this.maxFiniteDuration))}seekBy(t){return this.seekTo(this.offset+t)}set(t,e){if(!xe.includes(t))return;const n=this._running;n&&this.pause(!1,!1),this._settings[t]=e,n?this.play(!1):this._apply(this.offset,{},!1)}destruct(){this.stop(),this._handlers.forEach((t=>{t.element?t.element.removeEventListener(t.event,t.handler):t.callback&&t.callback.call&&t.callback.call()}));const t=()=>{},e=Object.getOwnPropertyNames(Object.getPrototypeOf(this));e.push(...Object.getOwnPropertyNames(this)),e.forEach((e=>{"function"==typeof this[e]?this[e]=t:delete this[e]}))}}return Ae.init(),Ae}));
(function(s,i,o,w,d,a,b){w[o]=w[o]||{};w[o][s]=w[o][s]||[];w[o][s].push(i);})('7c8cb2ed',{"root":"eMjZSXmzPwY1","version":"2025-04-07","animations":[{"elements":{"eMjZSXmzPwY6":{"transform":{"data":{"r":180},"keys":{"o":[{"t":2900,"v":{"x":492.237828,"y":373.763448,"type":"corner"}},{"t":5000,"v":{"x":492.237828,"y":263.763448,"type":"corner"}}]}}},"eMjZSXmzPwY11":{"transform":{"data":{"s":{"x":11.747533,"y":11.747549}},"keys":{"o":[{"t":0,"v":{"x":366.849171,"y":1002.842146,"type":"corner"}},{"t":3000,"v":{"x":366.849171,"y":365.842146,"type":"corner"},"e":[0.42,0,0.58,1]}]}}}},"s":"MDA1CZGI1NWNROWVYYWZhYzliYWVhUM2E5YTg1Yzc0NmY2YTZhNmE2UNkM1YzllYTNhYzlmOWRhZWEzOVWE5YTg1Yzc0NmI2NjVjYTNhQZTlmYWM5YmFlYTNhOUdhOFhhQZDVjNzQ2YjY2NWNhMFJhM2E2HYTY1Yzc0S0s2YjY2NWM5YmE2MYWU5ZmFjYTg5YmFlQzlmNWNRINzRhMDliYTZGYWRIOWY2NjVjQYWRhYTlmWTlmSjllNWNINzQ2LYjY2RzVjYTBhYUFhZDVjNzQ2EYjZhNmFiNw|"}],"options":"MDAxIMDhmMzY4Nzg4NzU4Njg4VTM2YNGUzNkw4MDgzNzVGNzgzNjkxU"},'__SVGATOR_PLAYER__',window,document)
]]></script>
</svg>
